<svg width="1653" height="1191" xmlns="http://www.w3.org/2000/svg" xmlns:xlink="http://www.w3.org/1999/xlink" xml:space="preserve" overflow="hidden"><defs><clipPath id="clip0"><rect x="4443" y="5070" width="1653" height="1191"/></clipPath></defs><g clip-path="url(#clip0)" transform="translate(-4443 -5070)"><rect x="4444" y="5071" width="1650" height="1188" fill="#FFFFFF"/><g><path d="M4616.5 5958.7 6001.5 5958.7M4616.5 5868.69 6001.5 5868.69M4616.5 5778.69 6001.5 5778.69M4616.5 5689.69 6001.5 5689.69M4616.5 5599.68 6001.5 5599.68M4616.5 5509.68 6001.5 5509.68M4616.5 5420.68 6001.5 5420.68M4616.5 5330.68 6001.5 5330.68M4616.5 5240.5 6001.5 5240.5" stroke="#D9D9D9" stroke-width="3.4375" stroke-linejoin="round" stroke-miterlimit="10" fill="none"/></g><g><path d="M4847.66 5240.5 4847.66 6048.5M5078.67 5240.5 5078.67 6048.5M5308.67 5240.5 5308.67 6048.5M5539.68 5240.5 5539.68 6048.5M5770.69 5240.5 5770.69 6048.5M6001.5 5240.5 6001.5 6048.5" stroke="#D9D9D9" stroke-width="3.4375" stroke-linejoin="round" stroke-miterlimit="10" fill="none"/></g><g><path d="M0 0 0.000360892 808" stroke="#BFBFBF" stroke-width="3.4375" stroke-linejoin="round" stroke-miterlimit="10" fill="none" fill-rule="evenodd" transform="matrix(1 0 0 -1 4616.5 6048.5)"/></g><g><path d="M4616.5 6048.5 6001.5 6048.5" stroke="#BFBFBF" stroke-width="3.4375" stroke-linejoin="round" stroke-miterlimit="10" fill="none" fill-rule="evenodd"/></g><g><path d="M4639.5 6044.7 4639.5 6045.5 4639.5 6042.7 4639.5 6044.7 4731.66 6023.7 4731.66 6030.7 4731.66 6008.7 4731.66 6022.7 4847.66 5994.7 4847.66 6009.7 4847.66 5960.7 4847.66 5991.7 5770.5 5740.69 5770.5 5805.69 5770.5 5520.5 5770.5 5728.69" stroke="#156082" stroke-width="6.875" stroke-linecap="round" stroke-linejoin="round" stroke-miterlimit="10" fill="none"/></g><g><path d="M4650.5 6044.5C4650.5 6050.57 4645.57 6055.5 4639.5 6055.5 4633.42 6055.5 4628.5 6050.57 4628.5 6044.5 4628.5 6038.42 4633.42 6033.5 4639.5 6033.5 4645.57 6033.5 4650.5 6038.42 4650.5 6044.5Z" stroke="#156082" stroke-width="3.4375" stroke-linejoin="round" stroke-miterlimit="10" fill="#156082"/><path d="M4650.5 6045.5C4650.5 6051.57 4645.57 6056.5 4639.5 6056.5 4633.42 6056.5 4628.5 6051.57 4628.5 6045.5 4628.5 6039.42 4633.42 6034.5 4639.5 6034.5 4645.57 6034.5 4650.5 6039.42 4650.5 6045.5Z" stroke="#156082" stroke-width="3.4375" stroke-linejoin="round" stroke-miterlimit="10" fill="#156082"/><path d="M4650.5 6042.5C4650.5 6048.57 4645.57 6053.5 4639.5 6053.5 4633.42 6053.5 4628.5 6048.57 4628.5 6042.5 4628.5 6036.42 4633.42 6031.5 4639.5 6031.5 4645.57 6031.5 4650.5 6036.42 4650.5 6042.5Z" stroke="#156082" stroke-width="3.4375" stroke-linejoin="round" stroke-miterlimit="10" fill="#156082"/><path d="M4650.5 6044.5C4650.5 6050.57 4645.57 6055.5 4639.5 6055.5 4633.42 6055.5 4628.5 6050.57 4628.5 6044.5 4628.5 6038.42 4633.42 6033.5 4639.5 6033.5 4645.57 6033.5 4650.5 6038.42 4650.5 6044.5Z" stroke="#156082" stroke-width="3.4375" stroke-linejoin="round" stroke-miterlimit="10" fill="#156082"/><path d="M4742.5 6023.5C4742.5 6029.57 4737.57 6034.5 4731.5 6034.5 4725.42 6034.5 4720.5 6029.57 4720.5 6023.5 4720.5 6017.42 4725.42 6012.5 4731.5 6012.5 4737.57 6012.5 4742.5 6017.42 4742.5 6023.5Z" stroke="#156082" stroke-width="3.4375" stroke-linejoin="round" stroke-miterlimit="10" fill="#156082"/><path d="M4742.5 6031.5C4742.5 6037.57 4737.57 6042.5 4731.5 6042.5 4725.42 6042.5 4720.5 6037.57 4720.5 6031.5 4720.5 6025.42 4725.42 6020.5 4731.5 6020.5 4737.57 6020.5 4742.5 6025.42 4742.5 6031.5Z" stroke="#156082" stroke-width="3.4375" stroke-linejoin="round" stroke-miterlimit="10" fill="#156082"/><path d="M4742.5 6008.5C4742.5 6014.57 4737.57 6019.5 4731.5 6019.5 4725.42 6019.5 4720.5 6014.57 4720.5 6008.5 4720.5 6002.42 4725.42 5997.5 4731.5 5997.5 4737.57 5997.5 4742.5 6002.42 4742.5 6008.5Z" stroke="#156082" stroke-width="3.4375" stroke-linejoin="round" stroke-miterlimit="10" fill="#156082"/><path d="M4742.5 6022.5C4742.5 6028.57 4737.57 6033.5 4731.5 6033.5 4725.42 6033.5 4720.5 6028.57 4720.5 6022.5 4720.5 6016.42 4725.42 6011.5 4731.5 6011.5 4737.57 6011.5 4742.5 6016.42 4742.5 6022.5Z" stroke="#156082" stroke-width="3.4375" stroke-linejoin="round" stroke-miterlimit="10" fill="#156082"/><path d="M4858.5 5994.5C4858.5 6000.57 4853.57 6005.5 4847.5 6005.5 4841.42 6005.5 4836.5 6000.57 4836.5 5994.5 4836.5 5988.42 4841.42 5983.5 4847.5 5983.5 4853.57 5983.5 4858.5 5988.42 4858.5 5994.5Z" stroke="#156082" stroke-width="3.4375" stroke-linejoin="round" stroke-miterlimit="10" fill="#156082"/><path d="M4858.5 6009.5C4858.5 6015.57 4853.57 6020.5 4847.5 6020.5 4841.42 6020.5 4836.5 6015.57 4836.5 6009.5 4836.5 6003.42 4841.42 5998.5 4847.5 5998.5 4853.57 5998.5 4858.5 6003.42 4858.5 6009.5Z" stroke="#156082" stroke-width="3.4375" stroke-linejoin="round" stroke-miterlimit="10" fill="#156082"/><path d="M4858.5 5961.5C4858.5 5967.57 4853.57 5972.5 4847.5 5972.5 4841.42 5972.5 4836.5 5967.57 4836.5 5961.5 4836.5 5955.42 4841.42 5950.5 4847.5 5950.5 4853.57 5950.5 4858.5 5955.42 4858.5 5961.5Z" stroke="#156082" stroke-width="3.4375" stroke-linejoin="round" stroke-miterlimit="10" fill="#156082"/><path d="M4858.5 5992.5C4858.5 5998.57 4853.57 6003.5 4847.5 6003.5 4841.42 6003.5 4836.5 5998.57 4836.5 5992.5 4836.5 5986.42 4841.42 5981.5 4847.5 5981.5 4853.57 5981.5 4858.5 5986.42 4858.5 5992.5Z" stroke="#156082" stroke-width="3.4375" stroke-linejoin="round" stroke-miterlimit="10" fill="#156082"/><path d="M5781.5 5740.5C5781.5 5746.57 5776.57 5751.5 5770.5 5751.5 5764.42 5751.5 5759.5 5746.57 5759.5 5740.5 5759.5 5734.42 5764.42 5729.5 5770.5 5729.5 5776.57 5729.5 5781.5 5734.42 5781.5 5740.5Z" stroke="#156082" stroke-width="3.4375" stroke-linejoin="round" stroke-miterlimit="10" fill="#156082"/><path d="M5781.5 5805.5C5781.5 5811.57 5776.57 5816.5 5770.5 5816.5 5764.42 5816.5 5759.5 5811.57 5759.5 5805.5 5759.5 5799.42 5764.42 5794.5 5770.5 5794.5 5776.57 5794.5 5781.5 5799.42 5781.5 5805.5Z" stroke="#156082" stroke-width="3.4375" stroke-linejoin="round" stroke-miterlimit="10" fill="#156082"/><path d="M5781.5 5520.5C5781.5 5526.57 5776.57 5531.5 5770.5 5531.5 5764.42 5531.5 5759.5 5526.57 5759.5 5520.5 5759.5 5514.42 5764.42 5509.5 5770.5 5509.5 5776.57 5509.5 5781.5 5514.42 5781.5 5520.5Z" stroke="#156082" stroke-width="3.4375" stroke-linejoin="round" stroke-miterlimit="10" fill="#156082"/><path d="M5781.5 5728.5C5781.5 5734.57 5776.57 5739.5 5770.5 5739.5 5764.42 5739.5 5759.5 5734.57 5759.5 5728.5 5759.5 5722.42 5764.42 5717.5 5770.5 5717.5 5776.57 5717.5 5781.5 5722.42 5781.5 5728.5Z" stroke="#156082" stroke-width="3.4375" stroke-linejoin="round" stroke-miterlimit="10" fill="#156082"/></g><g><path d="M4639.5 6041.5 4639.5 6038.7 4639.5 6039.7 4639.5 6041.7 4731.66 6006.7 4731.66 5991.7 4731.66 5997.7 4731.66 6005.7 4847.66 5947.7 4847.66 5916.69 4847.66 5929.69 4847.66 5944.7 5770.5 5455.68 5770.5 5298.5 5770.5 5366.68 5770.5 5441.68" stroke="#E97132" stroke-width="6.875" stroke-linecap="round" stroke-linejoin="round" stroke-miterlimit="10" fill="none"/></g><g><path d="M4650.5 6041.5C4650.5 6047.57 4645.57 6052.5 4639.5 6052.5 4633.42 6052.5 4628.5 6047.57 4628.5 6041.5 4628.5 6035.42 4633.42 6030.5 4639.5 6030.5 4645.57 6030.5 4650.5 6035.42 4650.5 6041.5Z" stroke="#E97132" stroke-width="3.4375" stroke-linejoin="round" stroke-miterlimit="10" fill="#E97132"/><path d="M4650.5 6038.5C4650.5 6044.57 4645.57 6049.5 4639.5 6049.5 4633.42 6049.5 4628.5 6044.57 4628.5 6038.5 4628.5 6032.42 4633.42 6027.5 4639.5 6027.5 4645.57 6027.5 4650.5 6032.42 4650.5 6038.5Z" stroke="#E97132" stroke-width="3.4375" stroke-linejoin="round" stroke-miterlimit="10" fill="#E97132"/><path d="M4650.5 6039.5C4650.5 6045.57 4645.57 6050.5 4639.5 6050.5 4633.42 6050.5 4628.5 6045.57 4628.5 6039.5 4628.5 6033.42 4633.42 6028.5 4639.5 6028.5 4645.57 6028.5 4650.5 6033.42 4650.5 6039.5Z" stroke="#E97132" stroke-width="3.4375" stroke-linejoin="round" stroke-miterlimit="10" fill="#E97132"/><path d="M4650.5 6041.5C4650.5 6047.57 4645.57 6052.5 4639.5 6052.5 4633.42 6052.5 4628.5 6047.57 4628.5 6041.5 4628.5 6035.42 4633.42 6030.5 4639.5 6030.5 4645.57 6030.5 4650.5 6035.42 4650.5 6041.5Z" stroke="#E97132" stroke-width="3.4375" stroke-linejoin="round" stroke-miterlimit="10" fill="#E97132"/><path d="M4742.5 6006.5C4742.5 6012.57 4737.57 6017.5 4731.5 6017.5 4725.42 6017.5 4720.5 6012.57 4720.5 6006.5 4720.5 6000.42 4725.42 5995.5 4731.5 5995.5 4737.57 5995.5 4742.5 6000.42 4742.5 6006.5Z" stroke="#E97132" stroke-width="3.4375" stroke-linejoin="round" stroke-miterlimit="10" fill="#E97132"/><path d="M4742.5 5991.5C4742.5 5997.57 4737.57 6002.5 4731.5 6002.5 4725.42 6002.5 4720.5 5997.57 4720.5 5991.5 4720.5 5985.42 4725.42 5980.5 4731.5 5980.5 4737.57 5980.5 4742.5 5985.42 4742.5 5991.5Z" stroke="#E97132" stroke-width="3.4375" stroke-linejoin="round" stroke-miterlimit="10" fill="#E97132"/><path d="M4742.5 5998.5C4742.5 6004.57 4737.57 6009.5 4731.5 6009.5 4725.42 6009.5 4720.5 6004.57 4720.5 5998.5 4720.5 5992.42 4725.42 5987.5 4731.5 5987.5 4737.57 5987.5 4742.5 5992.42 4742.5 5998.5Z" stroke="#E97132" stroke-width="3.4375" stroke-linejoin="round" stroke-miterlimit="10" fill="#E97132"/><path d="M4742.5 6005.5C4742.5 6011.57 4737.57 6016.5 4731.5 6016.5 4725.42 6016.5 4720.5 6011.57 4720.5 6005.5 4720.5 5999.42 4725.42 5994.5 4731.5 5994.5 4737.57 5994.5 4742.5 5999.42 4742.5 6005.5Z" stroke="#E97132" stroke-width="3.4375" stroke-linejoin="round" stroke-miterlimit="10" fill="#E97132"/><path d="M4858.5 5947.5C4858.5 5953.57 4853.57 5958.5 4847.5 5958.5 4841.42 5958.5 4836.5 5953.57 4836.5 5947.5 4836.5 5941.42 4841.42 5936.5 4847.5 5936.5 4853.57 5936.5 4858.5 5941.42 4858.5 5947.5Z" stroke="#E97132" stroke-width="3.4375" stroke-linejoin="round" stroke-miterlimit="10" fill="#E97132"/><path d="M4858.5 5916.5C4858.5 5922.57 4853.57 5927.5 4847.5 5927.5 4841.42 5927.5 4836.5 5922.57 4836.5 5916.5 4836.5 5910.42 4841.42 5905.5 4847.5 5905.5 4853.57 5905.5 4858.5 5910.42 4858.5 5916.5Z" stroke="#E97132" stroke-width="3.4375" stroke-linejoin="round" stroke-miterlimit="10" fill="#E97132"/><path d="M4858.5 5929.5C4858.5 5935.57 4853.57 5940.5 4847.5 5940.5 4841.42 5940.5 4836.5 5935.57 4836.5 5929.5 4836.5 5923.42 4841.42 5918.5 4847.5 5918.5 4853.57 5918.5 4858.5 5923.42 4858.5 5929.5Z" stroke="#E97132" stroke-width="3.4375" stroke-linejoin="round" stroke-miterlimit="10" fill="#E97132"/><path d="M4858.5 5944.5C4858.5 5950.57 4853.57 5955.5 4847.5 5955.5 4841.42 5955.5 4836.5 5950.57 4836.5 5944.5 4836.5 5938.42 4841.42 5933.5 4847.5 5933.5 4853.57 5933.5 4858.5 5938.42 4858.5 5944.5Z" stroke="#E97132" stroke-width="3.4375" stroke-linejoin="round" stroke-miterlimit="10" fill="#E97132"/><path d="M5781.5 5455.5C5781.5 5461.57 5776.57 5466.5 5770.5 5466.5 5764.42 5466.5 5759.5 5461.57 5759.5 5455.5 5759.5 5449.42 5764.42 5444.5 5770.5 5444.5 5776.57 5444.5 5781.5 5449.42 5781.5 5455.5Z" stroke="#E97132" stroke-width="3.4375" stroke-linejoin="round" stroke-miterlimit="10" fill="#E97132"/><path d="M5781.5 5298.5C5781.5 5304.57 5776.57 5309.5 5770.5 5309.5 5764.42 5309.5 5759.5 5304.57 5759.5 5298.5 5759.5 5292.42 5764.42 5287.5 5770.5 5287.5 5776.57 5287.5 5781.5 5292.42 5781.5 5298.5Z" stroke="#E97132" stroke-width="3.4375" stroke-linejoin="round" stroke-miterlimit="10" fill="#E97132"/><path d="M5781.5 5366.5C5781.5 5372.57 5776.57 5377.5 5770.5 5377.5 5764.42 5377.5 5759.5 5372.57 5759.5 5366.5 5759.5 5360.42 5764.42 5355.5 5770.5 5355.5 5776.57 5355.5 5781.5 5360.42 5781.5 5366.5Z" stroke="#E97132" stroke-width="3.4375" stroke-linejoin="round" stroke-miterlimit="10" fill="#E97132"/><path d="M5781.5 5441.5C5781.5 5447.57 5776.57 5452.5 5770.5 5452.5 5764.42 5452.5 5759.5 5447.57 5759.5 5441.5 5759.5 5435.42 5764.42 5430.5 5770.5 5430.5 5776.57 5430.5 5781.5 5435.42 5781.5 5441.5Z" stroke="#E97132" stroke-width="3.4375" stroke-linejoin="round" stroke-miterlimit="10" fill="#E97132"/></g><g><path d="M4639.5 6048.5 4731.66 6048.5 4847.66 6048.5 5770.5 6048.5" stroke="#196B24" stroke-width="6.875" stroke-linecap="round" stroke-linejoin="round" stroke-miterlimit="10" fill="none"/></g><g><path d="M4650.5 6048.5C4650.5 6054.57 4645.57 6059.5 4639.5 6059.5 4633.42 6059.5 4628.5 6054.57 4628.5 6048.5 4628.5 6042.42 4633.42 6037.5 4639.5 6037.5 4645.57 6037.5 4650.5 6042.42 4650.5 6048.5Z" stroke="#196B24" stroke-width="3.4375" stroke-linejoin="round" stroke-miterlimit="10" fill="#196B24"/><path d="M4650.5 6048.5C4650.5 6054.57 4645.57 6059.5 4639.5 6059.5 4633.42 6059.5 4628.5 6054.57 4628.5 6048.5 4628.5 6042.42 4633.42 6037.5 4639.5 6037.5 4645.57 6037.5 4650.5 6042.42 4650.5 6048.5Z" stroke="#196B24" stroke-width="3.4375" stroke-linejoin="round" stroke-miterlimit="10" fill="#196B24"/><path d="M4650.5 6048.5C4650.5 6054.57 4645.57 6059.5 4639.5 6059.5 4633.42 6059.5 4628.5 6054.57 4628.5 6048.5 4628.5 6042.42 4633.42 6037.5 4639.5 6037.5 4645.57 6037.5 4650.5 6042.42 4650.5 6048.5Z" stroke="#196B24" stroke-width="3.4375" stroke-linejoin="round" stroke-miterlimit="10" fill="#196B24"/><path d="M4650.5 6048.5C4650.5 6054.57 4645.57 6059.5 4639.5 6059.5 4633.42 6059.5 4628.5 6054.57 4628.5 6048.5 4628.5 6042.42 4633.42 6037.5 4639.5 6037.5 4645.57 6037.5 4650.5 6042.42 4650.5 6048.5Z" stroke="#196B24" stroke-width="3.4375" stroke-linejoin="round" stroke-miterlimit="10" fill="#196B24"/><path d="M4742.5 6048.5C4742.5 6054.57 4737.57 6059.5 4731.5 6059.5 4725.42 6059.5 4720.5 6054.57 4720.5 6048.5 4720.5 6042.42 4725.42 6037.5 4731.5 6037.5 4737.57 6037.5 4742.5 6042.42 4742.5 6048.5Z" stroke="#196B24" stroke-width="3.4375" stroke-linejoin="round" stroke-miterlimit="10" fill="#196B24"/><path d="M4742.5 6048.5C4742.5 6054.57 4737.57 6059.5 4731.5 6059.5 4725.42 6059.5 4720.5 6054.57 4720.5 6048.5 4720.5 6042.42 4725.42 6037.5 4731.5 6037.5 4737.57 6037.5 4742.5 6042.42 4742.5 6048.5Z" stroke="#196B24" stroke-width="3.4375" stroke-linejoin="round" stroke-miterlimit="10" fill="#196B24"/><path d="M4742.5 6048.5C4742.5 6054.57 4737.57 6059.5 4731.5 6059.5 4725.42 6059.5 4720.5 6054.57 4720.5 6048.5 4720.5 6042.42 4725.42 6037.5 4731.5 6037.5 4737.57 6037.5 4742.5 6042.42 4742.5 6048.5Z" stroke="#196B24" stroke-width="3.4375" stroke-linejoin="round" stroke-miterlimit="10" fill="#196B24"/><path d="M4742.5 6048.5C4742.5 6054.57 4737.57 6059.5 4731.5 6059.5 4725.42 6059.5 4720.5 6054.57 4720.5 6048.5 4720.5 6042.42 4725.42 6037.5 4731.5 6037.5 4737.57 6037.5 4742.5 6042.42 4742.5 6048.5Z" stroke="#196B24" stroke-width="3.4375" stroke-linejoin="round" stroke-miterlimit="10" fill="#196B24"/><path d="M4858.5 6048.5C4858.5 6054.57 4853.57 6059.5 4847.5 6059.5 4841.42 6059.5 4836.5 6054.57 4836.5 6048.5 4836.5 6042.42 4841.42 6037.5 4847.5 6037.5 4853.57 6037.5 4858.5 6042.42 4858.5 6048.5Z" stroke="#196B24" stroke-width="3.4375" stroke-linejoin="round" stroke-miterlimit="10" fill="#196B24"/><path d="M4858.5 6048.5C4858.5 6054.57 4853.57 6059.5 4847.5 6059.5 4841.42 6059.5 4836.5 6054.57 4836.5 6048.5 4836.5 6042.42 4841.42 6037.5 4847.5 6037.5 4853.57 6037.5 4858.5 6042.42 4858.5 6048.5Z" stroke="#196B24" stroke-width="3.4375" stroke-linejoin="round" stroke-miterlimit="10" fill="#196B24"/><path d="M4858.5 6048.5C4858.5 6054.57 4853.57 6059.5 4847.5 6059.5 4841.42 6059.5 4836.5 6054.57 4836.5 6048.5 4836.5 6042.42 4841.42 6037.5 4847.5 6037.5 4853.57 6037.5 4858.5 6042.42 4858.5 6048.5Z" stroke="#196B24" stroke-width="3.4375" stroke-linejoin="round" stroke-miterlimit="10" fill="#196B24"/><path d="M4858.5 6048.5C4858.5 6054.57 4853.57 6059.5 4847.5 6059.5 4841.42 6059.5 4836.5 6054.57 4836.5 6048.5 4836.5 6042.42 4841.42 6037.5 4847.5 6037.5 4853.57 6037.5 4858.5 6042.42 4858.5 6048.5Z" stroke="#196B24" stroke-width="3.4375" stroke-linejoin="round" stroke-miterlimit="10" fill="#196B24"/><path d="M5781.5 6048.5C5781.5 6054.57 5776.57 6059.5 5770.5 6059.5 5764.42 6059.5 5759.5 6054.57 5759.5 6048.5 5759.5 6042.42 5764.42 6037.5 5770.5 6037.5 5776.57 6037.5 5781.5 6042.42 5781.5 6048.5Z" stroke="#196B24" stroke-width="3.4375" stroke-linejoin="round" stroke-miterlimit="10" fill="#196B24"/><path d="M5781.5 6048.5C5781.5 6054.57 5776.57 6059.5 5770.5 6059.5 5764.42 6059.5 5759.5 6054.57 5759.5 6048.5 5759.5 6042.42 5764.42 6037.5 5770.5 6037.5 5776.57 6037.5 5781.5 6042.42 5781.5 6048.5Z" stroke="#196B24" stroke-width="3.4375" stroke-linejoin="round" stroke-miterlimit="10" fill="#196B24"/><path d="M5781.5 6048.5C5781.5 6054.57 5776.57 6059.5 5770.5 6059.5 5764.42 6059.5 5759.5 6054.57 5759.5 6048.5 5759.5 6042.42 5764.42 6037.5 5770.5 6037.5 5776.57 6037.5 5781.5 6042.42 5781.5 6048.5Z" stroke="#196B24" stroke-width="3.4375" stroke-linejoin="round" stroke-miterlimit="10" fill="#196B24"/><path d="M5781.5 6048.5C5781.5 6054.57 5776.57 6059.5 5770.5 6059.5 5764.42 6059.5 5759.5 6054.57 5759.5 6048.5 5759.5 6042.42 5764.42 6037.5 5770.5 6037.5 5776.57 6037.5 5781.5 6042.42 5781.5 6048.5Z" stroke="#196B24" stroke-width="3.4375" stroke-linejoin="round" stroke-miterlimit="10" fill="#196B24"/></g><g><text fill="#595959" font-family="Aptos Narrow,Aptos Narrow_MSFontService,sans-serif" font-weight="400" font-stretch="semi-condensed" font-size="41" transform="matrix(1 0 0 1 4557.39 6060)">0</text></g><g><text fill="#595959" font-family="Aptos Narrow,Aptos Narrow_MSFontService,sans-serif" font-weight="400" font-stretch="semi-condensed" font-size="41" transform="matrix(1 0 0 1 4473.79 5970)">10000</text></g><g><text fill="#595959" font-family="Aptos Narrow,Aptos Narrow_MSFontService,sans-serif" font-weight="400" font-stretch="semi-condensed" font-size="41" transform="matrix(1 0 0 1 4473.79 5880)">20000</text></g><g><text fill="#595959" font-family="Aptos Narrow,Aptos Narrow_MSFontService,sans-serif" font-weight="400" font-stretch="semi-condensed" font-size="41" transform="matrix(1 0 0 1 4473.79 5791)">30000</text></g><g><text fill="#595959" font-family="Aptos Narrow,Aptos Narrow_MSFontService,sans-serif" font-weight="400" font-stretch="semi-condensed" font-size="41" transform="matrix(1 0 0 1 4473.79 5701)">40000</text></g><g><text fill="#595959" font-family="Aptos Narrow,Aptos Narrow_MSFontService,sans-serif" font-weight="400" font-stretch="semi-condensed" font-size="41" transform="matrix(1 0 0 1 4473.79 5611)">50000</text></g><g><text fill="#595959" font-family="Aptos Narrow,Aptos Narrow_MSFontService,sans-serif" font-weight="400" font-stretch="semi-condensed" font-size="41" transform="matrix(1 0 0 1 4473.79 5522)">60000</text></g><g><text fill="#595959" font-family="Aptos Narrow,Aptos Narrow_MSFontService,sans-serif" font-weight="400" font-stretch="semi-condensed" font-size="41" transform="matrix(1 0 0 1 4473.79 5432)">70000</text></g><g><text fill="#595959" font-family="Aptos Narrow,Aptos Narrow_MSFontService,sans-serif" font-weight="400" font-stretch="semi-condensed" font-size="41" transform="matrix(1 0 0 1 4473.79 5342)">80000</text></g><g><text fill="#595959" font-family="Aptos Narrow,Aptos Narrow_MSFontService,sans-serif" font-weight="400" font-stretch="semi-condensed" font-size="41" transform="matrix(1 0 0 1 4473.79 5253)">90000</text></g><g><text fill="#595959" font-family="Aptos Narrow,Aptos Narrow_MSFontService,sans-serif" font-weight="400" font-stretch="semi-condensed" font-size="41" transform="matrix(1 0 0 1 4605.92 6113)">0</text></g><g><text fill="#595959" font-family="Aptos Narrow,Aptos Narrow_MSFontService,sans-serif" font-weight="400" font-stretch="semi-condensed" font-size="41" transform="matrix(1 0 0 1 4805.48 6113)">1000</text></g><g><text fill="#595959" font-family="Aptos Narrow,Aptos Narrow_MSFontService,sans-serif" font-weight="400" font-stretch="semi-condensed" font-size="41" transform="matrix(1 0 0 1 5036.38 6113)">2000</text></g><g><text fill="#595959" font-family="Aptos Narrow,Aptos Narrow_MSFontService,sans-serif" font-weight="400" font-stretch="semi-condensed" font-size="41" transform="matrix(1 0 0 1 5267.28 6113)">3000</text></g><g><text fill="#595959" font-family="Aptos Narrow,Aptos Narrow_MSFontService,sans-serif" font-weight="400" font-stretch="semi-condensed" font-size="41" transform="matrix(1 0 0 1 5498.18 6113)">4000</text></g><g><text fill="#595959" font-family="Aptos Narrow,Aptos Narrow_MSFontService,sans-serif" font-weight="400" font-stretch="semi-condensed" font-size="41" transform="matrix(1 0 0 1 5729.08 6113)">5000</text></g><g><text fill="#595959" font-family="Aptos Narrow,Aptos Narrow_MSFontService,sans-serif" font-weight="400" font-stretch="semi-condensed" font-size="41" transform="matrix(1 0 0 1 5959.98 6113)">6000</text></g><g><text fill="#595959" font-family="Aptos Narrow,Aptos Narrow_MSFontService,sans-serif" font-weight="400" font-stretch="semi-condensed" font-size="64" transform="matrix(1 0 0 1 5022.07 5165)">sort stable function</text></g><g><path d="M4891.5 6145.5 4979.5 6145.5" stroke="#156082" stroke-width="6.875" stroke-linecap="round" stroke-linejoin="round" stroke-miterlimit="10" fill="none" fill-rule="evenodd"/></g><g><path d="M4946 6145C4946 6151.07 4941.08 6156 4935 6156 4928.92 6156 4924 6151.07 4924 6145 4924 6138.92 4928.92 6134 4935 6134 4941.08 6134 4946 6138.92 4946 6145Z" stroke="#156082" stroke-width="3.4375" stroke-linejoin="round" stroke-miterlimit="10" fill="#156082"/></g><g><text fill="#595959" font-family="Aptos Narrow,Aptos Narrow_MSFontService,sans-serif" font-weight="400" font-stretch="semi-condensed" font-size="41" transform="matrix(1 0 0 1 4988.29 6157)">Comparaisons</text></g><g><path d="M5276.5 6145.5 5364.5 6145.5" stroke="#E97132" stroke-width="6.875" stroke-linecap="round" stroke-linejoin="round" stroke-miterlimit="10" fill="none" fill-rule="evenodd"/></g><g><path d="M5331 6145C5331 6151.07 5326.08 6156 5320 6156 5313.92 6156 5309 6151.07 5309 6145 5309 6138.92 5313.92 6134 5320 6134 5326.08 6134 5331 6138.92 5331 6145Z" stroke="#E97132" stroke-width="3.4375" stroke-linejoin="round" stroke-miterlimit="10" fill="#E97132"/></g><g><text fill="#595959" font-family="Aptos Narrow,Aptos Narrow_MSFontService,sans-serif" font-weight="400" font-stretch="semi-condensed" font-size="41" transform="matrix(1 0 0 1 5374.1 6157)">Affectations</text></g><g><path d="M4891.5 6191.5 4979.5 6191.5" stroke="#196B24" stroke-width="6.875" stroke-linecap="round" stroke-linejoin="round" stroke-miterlimit="10" fill="none" fill-rule="evenodd"/></g><g><path d="M4946 6191C4946 6197.07 4941.08 6202 4935 6202 4928.92 6202 4924 6197.07 4924 6191 4924 6184.92 4928.92 6180 4935 6180 4941.08 6180 4946 6184.92 4946 6191Z" stroke="#196B24" stroke-width="3.4375" stroke-linejoin="round" stroke-miterlimit="10" fill="#196B24"/></g><g><text fill="#595959" font-family="Aptos Narrow,Aptos Narrow_MSFontService,sans-serif" font-weight="400" font-stretch="semi-condensed" font-size="41" transform="matrix(1 0 0 1 4988.29 6203)">Temps</text></g><rect x="4444.5" y="5071.5" width="1650" height="1188" stroke="#D9D9D9" stroke-width="3.4375" stroke-linejoin="round" stroke-miterlimit="10" fill="none"/></g></svg>