<svg width="1653" height="1190" xmlns="http://www.w3.org/2000/svg" xmlns:xlink="http://www.w3.org/1999/xlink" xml:space="preserve" overflow="hidden"><defs><clipPath id="clip0"><rect x="4451" y="3866" width="1653" height="1190"/></clipPath></defs><g clip-path="url(#clip0)" transform="translate(-4451 -3866)"><rect x="4452" y="3867" width="1650" height="1187" fill="#FFFFFF"/><g><path d="M4624.5 4742.66 6010.5 4742.66M4624.5 4641.65 6010.5 4641.65M4624.5 4540.65 6010.5 4540.65M4624.5 4439.65 6010.5 4439.65M4624.5 4339.64 6010.5 4339.64M4624.5 4238.64 6010.5 4238.64M4624.5 4137.64 6010.5 4137.64M4624.5 4036.5 6010.5 4036.5" stroke="#D9D9D9" stroke-width="3.4375" stroke-linejoin="round" stroke-miterlimit="10" fill="none"/></g><g><path d="M4855.66 4036.5 4855.66 4843.5M5086.67 4036.5 5086.67 4843.5M5317.67 4036.5 5317.67 4843.5M5548.68 4036.5 5548.68 4843.5M5778.69 4036.5 5778.69 4843.5M6010.5 4036.5 6010.5 4843.5" stroke="#D9D9D9" stroke-width="3.4375" stroke-linejoin="round" stroke-miterlimit="10" fill="none"/></g><g><path d="M0 0 0.000360892 807" stroke="#BFBFBF" stroke-width="3.4375" stroke-linejoin="round" stroke-miterlimit="10" fill="none" fill-rule="evenodd" transform="matrix(1 0 0 -1 4624.5 4843.5)"/></g><g><path d="M4624.5 4843.5 6010.5 4843.5" stroke="#BFBFBF" stroke-width="3.4375" stroke-linejoin="round" stroke-miterlimit="10" fill="none" fill-rule="evenodd"/></g><g><path d="M4647.5 4837.66 4647.5 4838.5 4647.5 4835.66 4647.5 4837.66 4739.66 4797.66 4739.66 4807.66 4739.66 4789.66 4739.66 4796.66 4855.66 4736.66 4855.66 4761.66 4855.66 4723.66 4855.66 4745.66 5779.5 4078.5 5779.5 4278.64 5779.5 4089.63 5779.5 4148.64" stroke="#156082" stroke-width="6.875" stroke-linecap="round" stroke-linejoin="round" stroke-miterlimit="10" fill="none"/></g><g><path d="M4658.75 4838C4658.75 4844.07 4653.82 4849 4647.75 4849 4641.67 4849 4636.75 4844.07 4636.75 4838 4636.75 4831.92 4641.67 4827 4647.75 4827 4653.82 4827 4658.75 4831.92 4658.75 4838Z" stroke="#156082" stroke-width="3.4375" stroke-linejoin="round" stroke-miterlimit="10" fill="#156082"/><path d="M4658.75 4839C4658.75 4845.07 4653.82 4850 4647.75 4850 4641.67 4850 4636.75 4845.07 4636.75 4839 4636.75 4832.92 4641.67 4828 4647.75 4828 4653.82 4828 4658.75 4832.92 4658.75 4839Z" stroke="#156082" stroke-width="3.4375" stroke-linejoin="round" stroke-miterlimit="10" fill="#156082"/><path d="M4658.75 4836C4658.75 4842.07 4653.82 4847 4647.75 4847 4641.67 4847 4636.75 4842.07 4636.75 4836 4636.75 4829.92 4641.67 4825 4647.75 4825 4653.82 4825 4658.75 4829.92 4658.75 4836Z" stroke="#156082" stroke-width="3.4375" stroke-linejoin="round" stroke-miterlimit="10" fill="#156082"/><path d="M4658.75 4839C4658.75 4845.07 4653.82 4850 4647.75 4850 4641.67 4850 4636.75 4845.07 4636.75 4839 4636.75 4832.92 4641.67 4828 4647.75 4828 4653.82 4828 4658.75 4832.92 4658.75 4839Z" stroke="#156082" stroke-width="3.4375" stroke-linejoin="round" stroke-miterlimit="10" fill="#156082"/><path d="M4751.75 4798C4751.75 4804.07 4746.82 4809 4740.75 4809 4734.67 4809 4729.75 4804.07 4729.75 4798 4729.75 4791.92 4734.67 4787 4740.75 4787 4746.82 4787 4751.75 4791.92 4751.75 4798Z" stroke="#156082" stroke-width="3.4375" stroke-linejoin="round" stroke-miterlimit="10" fill="#156082"/><path d="M4751.75 4808C4751.75 4814.07 4746.82 4819 4740.75 4819 4734.67 4819 4729.75 4814.07 4729.75 4808 4729.75 4801.92 4734.67 4797 4740.75 4797 4746.82 4797 4751.75 4801.92 4751.75 4808Z" stroke="#156082" stroke-width="3.4375" stroke-linejoin="round" stroke-miterlimit="10" fill="#156082"/><path d="M4751.75 4790C4751.75 4796.07 4746.82 4801 4740.75 4801 4734.67 4801 4729.75 4796.07 4729.75 4790 4729.75 4783.92 4734.67 4779 4740.75 4779 4746.82 4779 4751.75 4783.92 4751.75 4790Z" stroke="#156082" stroke-width="3.4375" stroke-linejoin="round" stroke-miterlimit="10" fill="#156082"/><path d="M4751.75 4797C4751.75 4803.07 4746.82 4808 4740.75 4808 4734.67 4808 4729.75 4803.07 4729.75 4797 4729.75 4790.92 4734.67 4786 4740.75 4786 4746.82 4786 4751.75 4790.92 4751.75 4797Z" stroke="#156082" stroke-width="3.4375" stroke-linejoin="round" stroke-miterlimit="10" fill="#156082"/><path d="M4866.75 4737C4866.75 4743.07 4861.82 4748 4855.75 4748 4849.67 4748 4844.75 4743.07 4844.75 4737 4844.75 4730.92 4849.67 4726 4855.75 4726 4861.82 4726 4866.75 4730.92 4866.75 4737Z" stroke="#156082" stroke-width="3.4375" stroke-linejoin="round" stroke-miterlimit="10" fill="#156082"/><path d="M4866.75 4762C4866.75 4768.07 4861.82 4773 4855.75 4773 4849.67 4773 4844.75 4768.07 4844.75 4762 4844.75 4755.92 4849.67 4751 4855.75 4751 4861.82 4751 4866.75 4755.92 4866.75 4762Z" stroke="#156082" stroke-width="3.4375" stroke-linejoin="round" stroke-miterlimit="10" fill="#156082"/><path d="M4866.75 4724C4866.75 4730.07 4861.82 4735 4855.75 4735 4849.67 4735 4844.75 4730.07 4844.75 4724 4844.75 4717.92 4849.67 4713 4855.75 4713 4861.82 4713 4866.75 4717.92 4866.75 4724Z" stroke="#156082" stroke-width="3.4375" stroke-linejoin="round" stroke-miterlimit="10" fill="#156082"/><path d="M4866.75 4746C4866.75 4752.07 4861.82 4757 4855.75 4757 4849.67 4757 4844.75 4752.07 4844.75 4746 4844.75 4739.92 4849.67 4735 4855.75 4735 4861.82 4735 4866.75 4739.92 4866.75 4746Z" stroke="#156082" stroke-width="3.4375" stroke-linejoin="round" stroke-miterlimit="10" fill="#156082"/><path d="M5790.75 4079C5790.75 4085.07 5785.82 4090 5779.75 4090 5773.67 4090 5768.75 4085.07 5768.75 4079 5768.75 4072.92 5773.67 4068 5779.75 4068 5785.82 4068 5790.75 4072.92 5790.75 4079Z" stroke="#156082" stroke-width="3.4375" stroke-linejoin="round" stroke-miterlimit="10" fill="#156082"/><path d="M5790.75 4279C5790.75 4285.07 5785.82 4290 5779.75 4290 5773.67 4290 5768.75 4285.07 5768.75 4279 5768.75 4272.92 5773.67 4268 5779.75 4268 5785.82 4268 5790.75 4272.92 5790.75 4279Z" stroke="#156082" stroke-width="3.4375" stroke-linejoin="round" stroke-miterlimit="10" fill="#156082"/><path d="M5790.75 4090C5790.75 4096.07 5785.82 4101 5779.75 4101 5773.67 4101 5768.75 4096.07 5768.75 4090 5768.75 4083.92 5773.67 4079 5779.75 4079 5785.82 4079 5790.75 4083.92 5790.75 4090Z" stroke="#156082" stroke-width="3.4375" stroke-linejoin="round" stroke-miterlimit="10" fill="#156082"/><path d="M5790.75 4149C5790.75 4155.07 5785.82 4160 5779.75 4160 5773.67 4160 5768.75 4155.07 5768.75 4149 5768.75 4142.92 5773.67 4138 5779.75 4138 5785.82 4138 5790.75 4142.92 5790.75 4149Z" stroke="#156082" stroke-width="3.4375" stroke-linejoin="round" stroke-miterlimit="10" fill="#156082"/></g><g><path d="M4647.5 4840.5 4647.5 4838.66 4647.5 4836.66 4647.5 4839.66 4739.66 4826.66 4739.66 4820.66 4739.66 4799.66 4739.66 4824.66 4855.66 4810.66 4855.66 4796.66 4855.66 4745.66 4855.66 4805.66 5779.5 4667.65 5779.5 4606.65 5779.5 4284.5 5779.5 4653.65" stroke="#E97132" stroke-width="6.875" stroke-linecap="round" stroke-linejoin="round" stroke-miterlimit="10" fill="none"/></g><g><path d="M4658.75 4841C4658.75 4847.07 4653.82 4852 4647.75 4852 4641.67 4852 4636.75 4847.07 4636.75 4841 4636.75 4834.92 4641.67 4830 4647.75 4830 4653.82 4830 4658.75 4834.92 4658.75 4841Z" stroke="#E97132" stroke-width="3.4375" stroke-linejoin="round" stroke-miterlimit="10" fill="#E97132"/><path d="M4658.75 4840C4658.75 4846.07 4653.82 4851 4647.75 4851 4641.67 4851 4636.75 4846.07 4636.75 4840 4636.75 4833.92 4641.67 4829 4647.75 4829 4653.82 4829 4658.75 4833.92 4658.75 4840Z" stroke="#E97132" stroke-width="3.4375" stroke-linejoin="round" stroke-miterlimit="10" fill="#E97132"/><path d="M4658.75 4838C4658.75 4844.07 4653.82 4849 4647.75 4849 4641.67 4849 4636.75 4844.07 4636.75 4838 4636.75 4831.92 4641.67 4827 4647.75 4827 4653.82 4827 4658.75 4831.92 4658.75 4838Z" stroke="#E97132" stroke-width="3.4375" stroke-linejoin="round" stroke-miterlimit="10" fill="#E97132"/><path d="M4658.75 4841C4658.75 4847.07 4653.82 4852 4647.75 4852 4641.67 4852 4636.75 4847.07 4636.75 4841 4636.75 4834.92 4641.67 4830 4647.75 4830 4653.82 4830 4658.75 4834.92 4658.75 4841Z" stroke="#E97132" stroke-width="3.4375" stroke-linejoin="round" stroke-miterlimit="10" fill="#E97132"/><path d="M4751.75 4828C4751.75 4834.07 4746.82 4839 4740.75 4839 4734.67 4839 4729.75 4834.07 4729.75 4828 4729.75 4821.92 4734.67 4817 4740.75 4817 4746.82 4817 4751.75 4821.92 4751.75 4828Z" stroke="#E97132" stroke-width="3.4375" stroke-linejoin="round" stroke-miterlimit="10" fill="#E97132"/><path d="M4751.75 4821C4751.75 4827.07 4746.82 4832 4740.75 4832 4734.67 4832 4729.75 4827.07 4729.75 4821 4729.75 4814.92 4734.67 4810 4740.75 4810 4746.82 4810 4751.75 4814.92 4751.75 4821Z" stroke="#E97132" stroke-width="3.4375" stroke-linejoin="round" stroke-miterlimit="10" fill="#E97132"/><path d="M4751.75 4800C4751.75 4806.07 4746.82 4811 4740.75 4811 4734.67 4811 4729.75 4806.07 4729.75 4800 4729.75 4793.92 4734.67 4789 4740.75 4789 4746.82 4789 4751.75 4793.92 4751.75 4800Z" stroke="#E97132" stroke-width="3.4375" stroke-linejoin="round" stroke-miterlimit="10" fill="#E97132"/><path d="M4751.75 4825C4751.75 4831.07 4746.82 4836 4740.75 4836 4734.67 4836 4729.75 4831.07 4729.75 4825 4729.75 4818.92 4734.67 4814 4740.75 4814 4746.82 4814 4751.75 4818.92 4751.75 4825Z" stroke="#E97132" stroke-width="3.4375" stroke-linejoin="round" stroke-miterlimit="10" fill="#E97132"/><path d="M4866.75 4811C4866.75 4817.07 4861.82 4822 4855.75 4822 4849.67 4822 4844.75 4817.07 4844.75 4811 4844.75 4804.92 4849.67 4800 4855.75 4800 4861.82 4800 4866.75 4804.92 4866.75 4811Z" stroke="#E97132" stroke-width="3.4375" stroke-linejoin="round" stroke-miterlimit="10" fill="#E97132"/><path d="M4866.75 4798C4866.75 4804.07 4861.82 4809 4855.75 4809 4849.67 4809 4844.75 4804.07 4844.75 4798 4844.75 4791.92 4849.67 4787 4855.75 4787 4861.82 4787 4866.75 4791.92 4866.75 4798Z" stroke="#E97132" stroke-width="3.4375" stroke-linejoin="round" stroke-miterlimit="10" fill="#E97132"/><path d="M4866.75 4746C4866.75 4752.07 4861.82 4757 4855.75 4757 4849.67 4757 4844.75 4752.07 4844.75 4746 4844.75 4739.92 4849.67 4735 4855.75 4735 4861.82 4735 4866.75 4739.92 4866.75 4746Z" stroke="#E97132" stroke-width="3.4375" stroke-linejoin="round" stroke-miterlimit="10" fill="#E97132"/><path d="M4866.75 4806C4866.75 4812.07 4861.82 4817 4855.75 4817 4849.67 4817 4844.75 4812.07 4844.75 4806 4844.75 4799.92 4849.67 4795 4855.75 4795 4861.82 4795 4866.75 4799.92 4866.75 4806Z" stroke="#E97132" stroke-width="3.4375" stroke-linejoin="round" stroke-miterlimit="10" fill="#E97132"/><path d="M5790.75 4668C5790.75 4674.07 5785.82 4679 5779.75 4679 5773.67 4679 5768.75 4674.07 5768.75 4668 5768.75 4661.92 5773.67 4657 5779.75 4657 5785.82 4657 5790.75 4661.92 5790.75 4668Z" stroke="#E97132" stroke-width="3.4375" stroke-linejoin="round" stroke-miterlimit="10" fill="#E97132"/><path d="M5790.75 4607C5790.75 4613.07 5785.82 4618 5779.75 4618 5773.67 4618 5768.75 4613.07 5768.75 4607 5768.75 4600.92 5773.67 4596 5779.75 4596 5785.82 4596 5790.75 4600.92 5790.75 4607Z" stroke="#E97132" stroke-width="3.4375" stroke-linejoin="round" stroke-miterlimit="10" fill="#E97132"/><path d="M5790.75 4285C5790.75 4291.07 5785.82 4296 5779.75 4296 5773.67 4296 5768.75 4291.07 5768.75 4285 5768.75 4278.92 5773.67 4274 5779.75 4274 5785.82 4274 5790.75 4278.92 5790.75 4285Z" stroke="#E97132" stroke-width="3.4375" stroke-linejoin="round" stroke-miterlimit="10" fill="#E97132"/><path d="M5790.75 4655C5790.75 4661.07 5785.82 4666 5779.75 4666 5773.67 4666 5768.75 4661.07 5768.75 4655 5768.75 4648.92 5773.67 4644 5779.75 4644 5785.82 4644 5790.75 4648.92 5790.75 4655Z" stroke="#E97132" stroke-width="3.4375" stroke-linejoin="round" stroke-miterlimit="10" fill="#E97132"/></g><g><path d="M4647.5 4843.5 4739.66 4843.5 4855.66 4843.5 5779.5 4843.5" stroke="#196B24" stroke-width="6.875" stroke-linecap="round" stroke-linejoin="round" stroke-miterlimit="10" fill="none"/></g><g><path d="M4658.75 4844C4658.75 4850.07 4653.82 4855 4647.75 4855 4641.67 4855 4636.75 4850.07 4636.75 4844 4636.75 4837.92 4641.67 4833 4647.75 4833 4653.82 4833 4658.75 4837.92 4658.75 4844Z" stroke="#196B24" stroke-width="3.4375" stroke-linejoin="round" stroke-miterlimit="10" fill="#196B24"/><path d="M4658.75 4844C4658.75 4850.07 4653.82 4855 4647.75 4855 4641.67 4855 4636.75 4850.07 4636.75 4844 4636.75 4837.92 4641.67 4833 4647.75 4833 4653.82 4833 4658.75 4837.92 4658.75 4844Z" stroke="#196B24" stroke-width="3.4375" stroke-linejoin="round" stroke-miterlimit="10" fill="#196B24"/><path d="M4658.75 4844C4658.75 4850.07 4653.82 4855 4647.75 4855 4641.67 4855 4636.75 4850.07 4636.75 4844 4636.75 4837.92 4641.67 4833 4647.75 4833 4653.82 4833 4658.75 4837.92 4658.75 4844Z" stroke="#196B24" stroke-width="3.4375" stroke-linejoin="round" stroke-miterlimit="10" fill="#196B24"/><path d="M4658.75 4844C4658.75 4850.07 4653.82 4855 4647.75 4855 4641.67 4855 4636.75 4850.07 4636.75 4844 4636.75 4837.92 4641.67 4833 4647.75 4833 4653.82 4833 4658.75 4837.92 4658.75 4844Z" stroke="#196B24" stroke-width="3.4375" stroke-linejoin="round" stroke-miterlimit="10" fill="#196B24"/><path d="M4751.75 4844C4751.75 4850.07 4746.82 4855 4740.75 4855 4734.67 4855 4729.75 4850.07 4729.75 4844 4729.75 4837.92 4734.67 4833 4740.75 4833 4746.82 4833 4751.75 4837.92 4751.75 4844Z" stroke="#196B24" stroke-width="3.4375" stroke-linejoin="round" stroke-miterlimit="10" fill="#196B24"/><path d="M4751.75 4844C4751.75 4850.07 4746.82 4855 4740.75 4855 4734.67 4855 4729.75 4850.07 4729.75 4844 4729.75 4837.92 4734.67 4833 4740.75 4833 4746.82 4833 4751.75 4837.92 4751.75 4844Z" stroke="#196B24" stroke-width="3.4375" stroke-linejoin="round" stroke-miterlimit="10" fill="#196B24"/><path d="M4751.75 4844C4751.75 4850.07 4746.82 4855 4740.75 4855 4734.67 4855 4729.75 4850.07 4729.75 4844 4729.75 4837.92 4734.67 4833 4740.75 4833 4746.82 4833 4751.75 4837.92 4751.75 4844Z" stroke="#196B24" stroke-width="3.4375" stroke-linejoin="round" stroke-miterlimit="10" fill="#196B24"/><path d="M4751.75 4844C4751.75 4850.07 4746.82 4855 4740.75 4855 4734.67 4855 4729.75 4850.07 4729.75 4844 4729.75 4837.92 4734.67 4833 4740.75 4833 4746.82 4833 4751.75 4837.92 4751.75 4844Z" stroke="#196B24" stroke-width="3.4375" stroke-linejoin="round" stroke-miterlimit="10" fill="#196B24"/><path d="M4866.75 4844C4866.75 4850.07 4861.82 4855 4855.75 4855 4849.67 4855 4844.75 4850.07 4844.75 4844 4844.75 4837.92 4849.67 4833 4855.75 4833 4861.82 4833 4866.75 4837.92 4866.75 4844Z" stroke="#196B24" stroke-width="3.4375" stroke-linejoin="round" stroke-miterlimit="10" fill="#196B24"/><path d="M4866.75 4844C4866.75 4850.07 4861.82 4855 4855.75 4855 4849.67 4855 4844.75 4850.07 4844.75 4844 4844.75 4837.92 4849.67 4833 4855.75 4833 4861.82 4833 4866.75 4837.92 4866.75 4844Z" stroke="#196B24" stroke-width="3.4375" stroke-linejoin="round" stroke-miterlimit="10" fill="#196B24"/><path d="M4866.75 4844C4866.75 4850.07 4861.82 4855 4855.75 4855 4849.67 4855 4844.75 4850.07 4844.75 4844 4844.75 4837.92 4849.67 4833 4855.75 4833 4861.82 4833 4866.75 4837.92 4866.75 4844Z" stroke="#196B24" stroke-width="3.4375" stroke-linejoin="round" stroke-miterlimit="10" fill="#196B24"/><path d="M4866.75 4844C4866.75 4850.07 4861.82 4855 4855.75 4855 4849.67 4855 4844.75 4850.07 4844.75 4844 4844.75 4837.92 4849.67 4833 4855.75 4833 4861.82 4833 4866.75 4837.92 4866.75 4844Z" stroke="#196B24" stroke-width="3.4375" stroke-linejoin="round" stroke-miterlimit="10" fill="#196B24"/><path d="M5790.75 4844C5790.75 4850.07 5785.82 4855 5779.75 4855 5773.67 4855 5768.75 4850.07 5768.75 4844 5768.75 4837.92 5773.67 4833 5779.75 4833 5785.82 4833 5790.75 4837.92 5790.75 4844Z" stroke="#196B24" stroke-width="3.4375" stroke-linejoin="round" stroke-miterlimit="10" fill="#196B24"/><path d="M5790.75 4844C5790.75 4850.07 5785.82 4855 5779.75 4855 5773.67 4855 5768.75 4850.07 5768.75 4844 5768.75 4837.92 5773.67 4833 5779.75 4833 5785.82 4833 5790.75 4837.92 5790.75 4844Z" stroke="#196B24" stroke-width="3.4375" stroke-linejoin="round" stroke-miterlimit="10" fill="#196B24"/><path d="M5790.75 4844C5790.75 4850.07 5785.82 4855 5779.75 4855 5773.67 4855 5768.75 4850.07 5768.75 4844 5768.75 4837.92 5773.67 4833 5779.75 4833 5785.82 4833 5790.75 4837.92 5790.75 4844Z" stroke="#196B24" stroke-width="3.4375" stroke-linejoin="round" stroke-miterlimit="10" fill="#196B24"/><path d="M5790.75 4844C5790.75 4850.07 5785.82 4855 5779.75 4855 5773.67 4855 5768.75 4850.07 5768.75 4844 5768.75 4837.92 5773.67 4833 5779.75 4833 5785.82 4833 5790.75 4837.92 5790.75 4844Z" stroke="#196B24" stroke-width="3.4375" stroke-linejoin="round" stroke-miterlimit="10" fill="#196B24"/></g><g><text fill="#595959" font-family="Aptos Narrow,Aptos Narrow_MSFontService,sans-serif" font-weight="400" font-stretch="semi-condensed" font-size="41" transform="matrix(1 0 0 1 4565.64 4855)">0</text></g><g><text fill="#595959" font-family="Aptos Narrow,Aptos Narrow_MSFontService,sans-serif" font-weight="400" font-stretch="semi-condensed" font-size="41" transform="matrix(1 0 0 1 4482.04 4754)">10000</text></g><g><text fill="#595959" font-family="Aptos Narrow,Aptos Narrow_MSFontService,sans-serif" font-weight="400" font-stretch="semi-condensed" font-size="41" transform="matrix(1 0 0 1 4482.04 4653)">20000</text></g><g><text fill="#595959" font-family="Aptos Narrow,Aptos Narrow_MSFontService,sans-serif" font-weight="400" font-stretch="semi-condensed" font-size="41" transform="matrix(1 0 0 1 4482.04 4553)">30000</text></g><g><text fill="#595959" font-family="Aptos Narrow,Aptos Narrow_MSFontService,sans-serif" font-weight="400" font-stretch="semi-condensed" font-size="41" transform="matrix(1 0 0 1 4482.04 4452)">40000</text></g><g><text fill="#595959" font-family="Aptos Narrow,Aptos Narrow_MSFontService,sans-serif" font-weight="400" font-stretch="semi-condensed" font-size="41" transform="matrix(1 0 0 1 4482.04 4351)">50000</text></g><g><text fill="#595959" font-family="Aptos Narrow,Aptos Narrow_MSFontService,sans-serif" font-weight="400" font-stretch="semi-condensed" font-size="41" transform="matrix(1 0 0 1 4482.04 4250)">60000</text></g><g><text fill="#595959" font-family="Aptos Narrow,Aptos Narrow_MSFontService,sans-serif" font-weight="400" font-stretch="semi-condensed" font-size="41" transform="matrix(1 0 0 1 4482.04 4149)">70000</text></g><g><text fill="#595959" font-family="Aptos Narrow,Aptos Narrow_MSFontService,sans-serif" font-weight="400" font-stretch="semi-condensed" font-size="41" transform="matrix(1 0 0 1 4482.04 4048)">80000</text></g><g><text fill="#595959" font-family="Aptos Narrow,Aptos Narrow_MSFontService,sans-serif" font-weight="400" font-stretch="semi-condensed" font-size="41" transform="matrix(1 0 0 1 4614.17 4909)">0</text></g><g><text fill="#595959" font-family="Aptos Narrow,Aptos Narrow_MSFontService,sans-serif" font-weight="400" font-stretch="semi-condensed" font-size="41" transform="matrix(1 0 0 1 4813.73 4909)">1000</text></g><g><text fill="#595959" font-family="Aptos Narrow,Aptos Narrow_MSFontService,sans-serif" font-weight="400" font-stretch="semi-condensed" font-size="41" transform="matrix(1 0 0 1 5044.63 4909)">2000</text></g><g><text fill="#595959" font-family="Aptos Narrow,Aptos Narrow_MSFontService,sans-serif" font-weight="400" font-stretch="semi-condensed" font-size="41" transform="matrix(1 0 0 1 5275.53 4909)">3000</text></g><g><text fill="#595959" font-family="Aptos Narrow,Aptos Narrow_MSFontService,sans-serif" font-weight="400" font-stretch="semi-condensed" font-size="41" transform="matrix(1 0 0 1 5506.43 4909)">4000</text></g><g><text fill="#595959" font-family="Aptos Narrow,Aptos Narrow_MSFontService,sans-serif" font-weight="400" font-stretch="semi-condensed" font-size="41" transform="matrix(1 0 0 1 5737.33 4909)">5000</text></g><g><text fill="#595959" font-family="Aptos Narrow,Aptos Narrow_MSFontService,sans-serif" font-weight="400" font-stretch="semi-condensed" font-size="41" transform="matrix(1 0 0 1 5968.23 4909)">6000</text></g><g><text fill="#595959" font-family="Aptos Narrow,Aptos Narrow_MSFontService,sans-serif" font-weight="400" font-stretch="semi-condensed" font-size="64" transform="matrix(1 0 0 1 5115.3 3961)">sort function</text></g><g><path d="M4899.5 4940.5 4987.5 4940.5" stroke="#156082" stroke-width="6.875" stroke-linecap="round" stroke-linejoin="round" stroke-miterlimit="10" fill="none" fill-rule="evenodd"/></g><g><path d="M4954 4940C4954 4946.07 4949.08 4951 4943 4951 4936.92 4951 4932 4946.07 4932 4940 4932 4933.92 4936.92 4929 4943 4929 4949.08 4929 4954 4933.92 4954 4940Z" stroke="#156082" stroke-width="3.4375" stroke-linejoin="round" stroke-miterlimit="10" fill="#156082"/></g><g><text fill="#595959" font-family="Aptos Narrow,Aptos Narrow_MSFontService,sans-serif" font-weight="400" font-stretch="semi-condensed" font-size="41" transform="matrix(1 0 0 1 4996.54 4952)">Comparaisons</text></g><g><path d="M5285.5 4940.5 5373.5 4940.5" stroke="#E97132" stroke-width="6.875" stroke-linecap="round" stroke-linejoin="round" stroke-miterlimit="10" fill="none" fill-rule="evenodd"/></g><g><path d="M5340 4940C5340 4946.07 5335.08 4951 5329 4951 5322.92 4951 5318 4946.07 5318 4940 5318 4933.92 5322.92 4929 5329 4929 5335.08 4929 5340 4933.92 5340 4940Z" stroke="#E97132" stroke-width="3.4375" stroke-linejoin="round" stroke-miterlimit="10" fill="#E97132"/></g><g><text fill="#595959" font-family="Aptos Narrow,Aptos Narrow_MSFontService,sans-serif" font-weight="400" font-stretch="semi-condensed" font-size="41" transform="matrix(1 0 0 1 5382.35 4952)">Affectations</text></g><g><path d="M4899.5 4987.5 4987.5 4987.5" stroke="#196B24" stroke-width="6.875" stroke-linecap="round" stroke-linejoin="round" stroke-miterlimit="10" fill="none" fill-rule="evenodd"/></g><g><path d="M4954 4987C4954 4993.07 4949.08 4998 4943 4998 4936.92 4998 4932 4993.07 4932 4987 4932 4980.92 4936.92 4976 4943 4976 4949.08 4976 4954 4980.92 4954 4987Z" stroke="#196B24" stroke-width="3.4375" stroke-linejoin="round" stroke-miterlimit="10" fill="#196B24"/></g><g><text fill="#595959" font-family="Aptos Narrow,Aptos Narrow_MSFontService,sans-serif" font-weight="400" font-stretch="semi-condensed" font-size="41" transform="matrix(1 0 0 1 4996.54 4999)">Temps</text></g><rect x="4452.5" y="3867.5" width="1650" height="1187" stroke="#D9D9D9" stroke-width="3.4375" stroke-linejoin="round" stroke-miterlimit="10" fill="none"/></g></svg>