<svg width="1652" height="993" xmlns="http://www.w3.org/2000/svg" xmlns:xlink="http://www.w3.org/1999/xlink" xml:space="preserve" overflow="hidden"><defs><clipPath id="clip0"><rect x="4405" y="121" width="1652" height="993"/></clipPath></defs><g clip-path="url(#clip0)" transform="translate(-4405 -121)"><rect x="4406" y="122" width="1649" height="990" fill="#FFFFFF"/><g><path d="M4661.5 825.527 5952.5 825.527M4661.5 749.525 5952.5 749.525M4661.5 673.522 5952.5 673.522M4661.5 596.52 5952.5 596.52M4661.5 520.517 5952.5 520.517M4661.5 444.515 5952.5 444.515M4661.5 368.512 5952.5 368.512M4661.5 292.5 5952.5 292.5" stroke="#D9D9D9" stroke-width="3.4375" stroke-linejoin="round" stroke-miterlimit="10" fill="none"/></g><g><path d="M4876.66 292.5 4876.66 901.5M5091.67 292.5 5091.67 901.5M5306.67 292.5 5306.67 901.5M5522.68 292.5 5522.68 901.5M5737.69 292.5 5737.69 901.5M5952.5 292.5 5952.5 901.5" stroke="#D9D9D9" stroke-width="3.4375" stroke-linejoin="round" stroke-miterlimit="10" fill="none"/></g><g><path d="M0 0 0.000360892 609" stroke="#BFBFBF" stroke-width="3.4375" stroke-linejoin="round" stroke-miterlimit="10" fill="none" fill-rule="evenodd" transform="matrix(1 0 0 -1 4661.5 901.5)"/></g><g><path d="M4661.5 901.5 5952.5 901.501" stroke="#BFBFBF" stroke-width="3.4375" stroke-linejoin="round" stroke-miterlimit="10" fill="none" fill-rule="evenodd"/></g><g><path d="M4672.5 901.5 4672.5 901.53 4672.5 901.53 4715.65 901.53 4715.65 901.53 4715.65 901.53 4768.66 901.53 4768.66 899.53 4768.66 899.53 4768.66 901.53 5199.67 901.53 5199.67 853.528 5199.67 853.528 5199.67 901.53 5737.5 901.53 5737.5 711.5 5737.5 711.523 5737.5 901.53" stroke="#156082" stroke-width="6.875" stroke-linecap="round" stroke-linejoin="round" stroke-miterlimit="10" fill="none"/></g><g><path d="M4684 901.875C4684 907.95 4679.07 912.874 4673 912.874 4666.92 912.874 4662 907.95 4662 901.875 4662 895.8 4666.92 890.875 4673 890.875 4679.07 890.875 4684 895.8 4684 901.875Z" stroke="#156082" stroke-width="3.4375" stroke-linejoin="round" stroke-miterlimit="10" fill="#156082"/><path d="M4684 901.875C4684 907.95 4679.07 912.874 4673 912.874 4666.92 912.874 4662 907.95 4662 901.875 4662 895.8 4666.92 890.875 4673 890.875 4679.07 890.875 4684 895.8 4684 901.875Z" stroke="#156082" stroke-width="3.4375" stroke-linejoin="round" stroke-miterlimit="10" fill="#156082"/><path d="M4684 901.875C4684 907.95 4679.07 912.874 4673 912.874 4666.92 912.874 4662 907.95 4662 901.875 4662 895.8 4666.92 890.875 4673 890.875 4679.07 890.875 4684 895.8 4684 901.875Z" stroke="#156082" stroke-width="3.4375" stroke-linejoin="round" stroke-miterlimit="10" fill="#156082"/><path d="M4684 901.875C4684 907.95 4679.07 912.874 4673 912.874 4666.92 912.874 4662 907.95 4662 901.875 4662 895.8 4666.92 890.875 4673 890.875 4679.07 890.875 4684 895.8 4684 901.875Z" stroke="#156082" stroke-width="3.4375" stroke-linejoin="round" stroke-miterlimit="10" fill="#156082"/><path d="M4727 901.875C4727 907.95 4722.07 912.874 4716 912.874 4709.92 912.874 4705 907.95 4705 901.875 4705 895.8 4709.92 890.875 4716 890.875 4722.07 890.875 4727 895.8 4727 901.875Z" stroke="#156082" stroke-width="3.4375" stroke-linejoin="round" stroke-miterlimit="10" fill="#156082"/><path d="M4727 901.875C4727 907.95 4722.07 912.874 4716 912.874 4709.92 912.874 4705 907.95 4705 901.875 4705 895.8 4709.92 890.875 4716 890.875 4722.07 890.875 4727 895.8 4727 901.875Z" stroke="#156082" stroke-width="3.4375" stroke-linejoin="round" stroke-miterlimit="10" fill="#156082"/><path d="M4727 901.875C4727 907.95 4722.07 912.874 4716 912.874 4709.92 912.874 4705 907.95 4705 901.875 4705 895.8 4709.92 890.875 4716 890.875 4722.07 890.875 4727 895.8 4727 901.875Z" stroke="#156082" stroke-width="3.4375" stroke-linejoin="round" stroke-miterlimit="10" fill="#156082"/><path d="M4727 901.875C4727 907.95 4722.07 912.874 4716 912.874 4709.92 912.874 4705 907.95 4705 901.875 4705 895.8 4709.92 890.875 4716 890.875 4722.07 890.875 4727 895.8 4727 901.875Z" stroke="#156082" stroke-width="3.4375" stroke-linejoin="round" stroke-miterlimit="10" fill="#156082"/><path d="M4781 901.875C4781 907.95 4776.07 912.874 4770 912.874 4763.92 912.874 4759 907.95 4759 901.875 4759 895.8 4763.92 890.875 4770 890.875 4776.07 890.875 4781 895.8 4781 901.875Z" stroke="#156082" stroke-width="3.4375" stroke-linejoin="round" stroke-miterlimit="10" fill="#156082"/><path d="M4781 899.875C4781 905.95 4776.07 910.874 4770 910.874 4763.92 910.874 4759 905.95 4759 899.875 4759 893.8 4763.92 888.875 4770 888.875 4776.07 888.875 4781 893.8 4781 899.875Z" stroke="#156082" stroke-width="3.4375" stroke-linejoin="round" stroke-miterlimit="10" fill="#156082"/><path d="M4781 899.875C4781 905.95 4776.07 910.874 4770 910.874 4763.92 910.874 4759 905.95 4759 899.875 4759 893.8 4763.92 888.875 4770 888.875 4776.07 888.875 4781 893.8 4781 899.875Z" stroke="#156082" stroke-width="3.4375" stroke-linejoin="round" stroke-miterlimit="10" fill="#156082"/><path d="M4781 901.875C4781 907.95 4776.07 912.874 4770 912.874 4763.92 912.874 4759 907.95 4759 901.875 4759 895.8 4763.92 890.875 4770 890.875 4776.07 890.875 4781 895.8 4781 901.875Z" stroke="#156082" stroke-width="3.4375" stroke-linejoin="round" stroke-miterlimit="10" fill="#156082"/><path d="M5211 901.875C5211 907.95 5206.07 912.874 5200 912.874 5193.92 912.874 5189 907.95 5189 901.875 5189 895.8 5193.92 890.875 5200 890.875 5206.07 890.875 5211 895.8 5211 901.875Z" stroke="#156082" stroke-width="3.4375" stroke-linejoin="round" stroke-miterlimit="10" fill="#156082"/><path d="M5211 853.875C5211 859.95 5206.07 864.874 5200 864.874 5193.92 864.874 5189 859.95 5189 853.875 5189 847.8 5193.92 842.875 5200 842.875 5206.07 842.875 5211 847.8 5211 853.875Z" stroke="#156082" stroke-width="3.4375" stroke-linejoin="round" stroke-miterlimit="10" fill="#156082"/><path d="M5211 853.875C5211 859.95 5206.07 864.874 5200 864.874 5193.92 864.874 5189 859.95 5189 853.875 5189 847.8 5193.92 842.875 5200 842.875 5206.07 842.875 5211 847.8 5211 853.875Z" stroke="#156082" stroke-width="3.4375" stroke-linejoin="round" stroke-miterlimit="10" fill="#156082"/><path d="M5211 901.875C5211 907.95 5206.07 912.874 5200 912.874 5193.92 912.874 5189 907.95 5189 901.875 5189 895.8 5193.92 890.875 5200 890.875 5206.07 890.875 5211 895.8 5211 901.875Z" stroke="#156082" stroke-width="3.4375" stroke-linejoin="round" stroke-miterlimit="10" fill="#156082"/><path d="M5749 901.875C5749 907.95 5744.07 912.874 5738 912.874 5731.92 912.874 5727 907.95 5727 901.875 5727 895.8 5731.92 890.875 5738 890.875 5744.07 890.875 5749 895.8 5749 901.875Z" stroke="#156082" stroke-width="3.4375" stroke-linejoin="round" stroke-miterlimit="10" fill="#156082"/><path d="M5749 711.875C5749 717.95 5744.07 722.874 5738 722.874 5731.92 722.874 5727 717.95 5727 711.875 5727 705.8 5731.92 700.875 5738 700.875 5744.07 700.875 5749 705.8 5749 711.875Z" stroke="#156082" stroke-width="3.4375" stroke-linejoin="round" stroke-miterlimit="10" fill="#156082"/><path d="M5749 711.875C5749 717.95 5744.07 722.874 5738 722.874 5731.92 722.874 5727 717.95 5727 711.875 5727 705.8 5731.92 700.875 5738 700.875 5744.07 700.875 5749 705.8 5749 711.875Z" stroke="#156082" stroke-width="3.4375" stroke-linejoin="round" stroke-miterlimit="10" fill="#156082"/><path d="M5749 901.875C5749 907.95 5744.07 912.874 5738 912.874 5731.92 912.874 5727 907.95 5727 901.875 5727 895.8 5731.92 890.875 5738 890.875 5744.07 890.875 5749 895.8 5749 901.875Z" stroke="#156082" stroke-width="3.4375" stroke-linejoin="round" stroke-miterlimit="10" fill="#156082"/></g><g><path d="M4672.5 901.5 4672.5 901.53 4672.5 901.53 4672.5 901.53 4715.65 901.5 4715.65 900.53 4715.65 900.53 4715.65 901.53 4768.66 901.5 4768.66 895.53 4768.66 898.53 4768.66 901.53 5199.67 901.5 5199.67 758.525 5199.67 830.527 5199.67 901.53 5737.5 901.5 5737.5 330.5 5737.5 616.52 5737.5 901.53" stroke="#E97132" stroke-width="6.875" stroke-linecap="round" stroke-linejoin="round" stroke-miterlimit="10" fill="none"/></g><g><path d="M4684 901.875C4684 907.95 4679.07 912.874 4673 912.874 4666.92 912.874 4662 907.95 4662 901.875 4662 895.8 4666.92 890.875 4673 890.875 4679.07 890.875 4684 895.8 4684 901.875Z" stroke="#E97132" stroke-width="3.4375" stroke-linejoin="round" stroke-miterlimit="10" fill="#E97132"/><path d="M4684 901.875C4684 907.95 4679.07 912.874 4673 912.874 4666.92 912.874 4662 907.95 4662 901.875 4662 895.8 4666.92 890.875 4673 890.875 4679.07 890.875 4684 895.8 4684 901.875Z" stroke="#E97132" stroke-width="3.4375" stroke-linejoin="round" stroke-miterlimit="10" fill="#E97132"/><path d="M4684 901.875C4684 907.95 4679.07 912.874 4673 912.874 4666.92 912.874 4662 907.95 4662 901.875 4662 895.8 4666.92 890.875 4673 890.875 4679.07 890.875 4684 895.8 4684 901.875Z" stroke="#E97132" stroke-width="3.4375" stroke-linejoin="round" stroke-miterlimit="10" fill="#E97132"/><path d="M4684 901.875C4684 907.95 4679.07 912.874 4673 912.874 4666.92 912.874 4662 907.95 4662 901.875 4662 895.8 4666.92 890.875 4673 890.875 4679.07 890.875 4684 895.8 4684 901.875Z" stroke="#E97132" stroke-width="3.4375" stroke-linejoin="round" stroke-miterlimit="10" fill="#E97132"/><path d="M4727 901.875C4727 907.95 4722.07 912.874 4716 912.874 4709.92 912.874 4705 907.95 4705 901.875 4705 895.8 4709.92 890.875 4716 890.875 4722.07 890.875 4727 895.8 4727 901.875Z" stroke="#E97132" stroke-width="3.4375" stroke-linejoin="round" stroke-miterlimit="10" fill="#E97132"/><path d="M4727 900.875C4727 906.95 4722.07 911.874 4716 911.874 4709.92 911.874 4705 906.95 4705 900.875 4705 894.8 4709.92 889.875 4716 889.875 4722.07 889.875 4727 894.8 4727 900.875Z" stroke="#E97132" stroke-width="3.4375" stroke-linejoin="round" stroke-miterlimit="10" fill="#E97132"/><path d="M4727 900.875C4727 906.95 4722.07 911.874 4716 911.874 4709.92 911.874 4705 906.95 4705 900.875 4705 894.8 4709.92 889.875 4716 889.875 4722.07 889.875 4727 894.8 4727 900.875Z" stroke="#E97132" stroke-width="3.4375" stroke-linejoin="round" stroke-miterlimit="10" fill="#E97132"/><path d="M4727 901.875C4727 907.95 4722.07 912.874 4716 912.874 4709.92 912.874 4705 907.95 4705 901.875 4705 895.8 4709.92 890.875 4716 890.875 4722.07 890.875 4727 895.8 4727 901.875Z" stroke="#E97132" stroke-width="3.4375" stroke-linejoin="round" stroke-miterlimit="10" fill="#E97132"/><path d="M4781 901.875C4781 907.95 4776.07 912.874 4770 912.874 4763.92 912.874 4759 907.95 4759 901.875 4759 895.8 4763.92 890.875 4770 890.875 4776.07 890.875 4781 895.8 4781 901.875Z" stroke="#E97132" stroke-width="3.4375" stroke-linejoin="round" stroke-miterlimit="10" fill="#E97132"/><path d="M4781 895.875C4781 901.95 4776.07 906.874 4770 906.874 4763.92 906.874 4759 901.95 4759 895.875 4759 889.8 4763.92 884.875 4770 884.875 4776.07 884.875 4781 889.8 4781 895.875Z" stroke="#E97132" stroke-width="3.4375" stroke-linejoin="round" stroke-miterlimit="10" fill="#E97132"/><path d="M4781 898.875C4781 904.95 4776.07 909.874 4770 909.874 4763.92 909.874 4759 904.95 4759 898.875 4759 892.8 4763.92 887.875 4770 887.875 4776.07 887.875 4781 892.8 4781 898.875Z" stroke="#E97132" stroke-width="3.4375" stroke-linejoin="round" stroke-miterlimit="10" fill="#E97132"/><path d="M4781 901.875C4781 907.95 4776.07 912.874 4770 912.874 4763.92 912.874 4759 907.95 4759 901.875 4759 895.8 4763.92 890.875 4770 890.875 4776.07 890.875 4781 895.8 4781 901.875Z" stroke="#E97132" stroke-width="3.4375" stroke-linejoin="round" stroke-miterlimit="10" fill="#E97132"/><path d="M5211 901.875C5211 907.95 5206.07 912.874 5200 912.874 5193.92 912.874 5189 907.95 5189 901.875 5189 895.8 5193.92 890.875 5200 890.875 5206.07 890.875 5211 895.8 5211 901.875Z" stroke="#E97132" stroke-width="3.4375" stroke-linejoin="round" stroke-miterlimit="10" fill="#E97132"/><path d="M5211 758.875C5211 764.95 5206.07 769.874 5200 769.874 5193.92 769.874 5189 764.95 5189 758.875 5189 752.8 5193.92 747.875 5200 747.875 5206.07 747.875 5211 752.8 5211 758.875Z" stroke="#E97132" stroke-width="3.4375" stroke-linejoin="round" stroke-miterlimit="10" fill="#E97132"/><path d="M5211 830.875C5211 836.95 5206.07 841.874 5200 841.874 5193.92 841.874 5189 836.95 5189 830.875 5189 824.8 5193.92 819.875 5200 819.875 5206.07 819.875 5211 824.8 5211 830.875Z" stroke="#E97132" stroke-width="3.4375" stroke-linejoin="round" stroke-miterlimit="10" fill="#E97132"/><path d="M5211 901.875C5211 907.95 5206.07 912.874 5200 912.874 5193.92 912.874 5189 907.95 5189 901.875 5189 895.8 5193.92 890.875 5200 890.875 5206.07 890.875 5211 895.8 5211 901.875Z" stroke="#E97132" stroke-width="3.4375" stroke-linejoin="round" stroke-miterlimit="10" fill="#E97132"/><path d="M5749 901.875C5749 907.95 5744.07 912.874 5738 912.874 5731.92 912.874 5727 907.95 5727 901.875 5727 895.8 5731.92 890.875 5738 890.875 5744.07 890.875 5749 895.8 5749 901.875Z" stroke="#E97132" stroke-width="3.4375" stroke-linejoin="round" stroke-miterlimit="10" fill="#E97132"/><path d="M5749 330.875C5749 336.95 5744.07 341.874 5738 341.874 5731.92 341.874 5727 336.95 5727 330.875 5727 324.8 5731.92 319.875 5738 319.875 5744.07 319.875 5749 324.8 5749 330.875Z" stroke="#E97132" stroke-width="3.4375" stroke-linejoin="round" stroke-miterlimit="10" fill="#E97132"/><path d="M5749 616.875C5749 622.95 5744.07 627.874 5738 627.874 5731.92 627.874 5727 622.95 5727 616.875 5727 610.8 5731.92 605.875 5738 605.875 5744.07 605.875 5749 610.8 5749 616.875Z" stroke="#E97132" stroke-width="3.4375" stroke-linejoin="round" stroke-miterlimit="10" fill="#E97132"/><path d="M5749 901.875C5749 907.95 5744.07 912.874 5738 912.874 5731.92 912.874 5727 907.95 5727 901.875 5727 895.8 5731.92 890.875 5738 890.875 5744.07 890.875 5749 895.8 5749 901.875Z" stroke="#E97132" stroke-width="3.4375" stroke-linejoin="round" stroke-miterlimit="10" fill="#E97132"/></g><g><path d="M4672.5 901.5 4715.65 901.5 4768.66 901.5 5199.67 901.5 5737.5 901.5" stroke="#196B24" stroke-width="6.875" stroke-linecap="round" stroke-linejoin="round" stroke-miterlimit="10" fill="none"/></g><g><path d="M4684 901.875C4684 907.95 4679.07 912.874 4673 912.874 4666.92 912.874 4662 907.95 4662 901.875 4662 895.8 4666.92 890.875 4673 890.875 4679.07 890.875 4684 895.8 4684 901.875Z" stroke="#196B24" stroke-width="3.4375" stroke-linejoin="round" stroke-miterlimit="10" fill="#196B24"/><path d="M4684 901.875C4684 907.95 4679.07 912.874 4673 912.874 4666.92 912.874 4662 907.95 4662 901.875 4662 895.8 4666.92 890.875 4673 890.875 4679.07 890.875 4684 895.8 4684 901.875Z" stroke="#196B24" stroke-width="3.4375" stroke-linejoin="round" stroke-miterlimit="10" fill="#196B24"/><path d="M4684 901.875C4684 907.95 4679.07 912.874 4673 912.874 4666.92 912.874 4662 907.95 4662 901.875 4662 895.8 4666.92 890.875 4673 890.875 4679.07 890.875 4684 895.8 4684 901.875Z" stroke="#196B24" stroke-width="3.4375" stroke-linejoin="round" stroke-miterlimit="10" fill="#196B24"/><path d="M4684 901.875C4684 907.95 4679.07 912.874 4673 912.874 4666.92 912.874 4662 907.95 4662 901.875 4662 895.8 4666.92 890.875 4673 890.875 4679.07 890.875 4684 895.8 4684 901.875Z" stroke="#196B24" stroke-width="3.4375" stroke-linejoin="round" stroke-miterlimit="10" fill="#196B24"/><path d="M4727 901.875C4727 907.95 4722.07 912.874 4716 912.874 4709.92 912.874 4705 907.95 4705 901.875 4705 895.8 4709.92 890.875 4716 890.875 4722.07 890.875 4727 895.8 4727 901.875Z" stroke="#196B24" stroke-width="3.4375" stroke-linejoin="round" stroke-miterlimit="10" fill="#196B24"/><path d="M4727 901.875C4727 907.95 4722.07 912.874 4716 912.874 4709.92 912.874 4705 907.95 4705 901.875 4705 895.8 4709.92 890.875 4716 890.875 4722.07 890.875 4727 895.8 4727 901.875Z" stroke="#196B24" stroke-width="3.4375" stroke-linejoin="round" stroke-miterlimit="10" fill="#196B24"/><path d="M4727 901.875C4727 907.95 4722.07 912.874 4716 912.874 4709.92 912.874 4705 907.95 4705 901.875 4705 895.8 4709.92 890.875 4716 890.875 4722.07 890.875 4727 895.8 4727 901.875Z" stroke="#196B24" stroke-width="3.4375" stroke-linejoin="round" stroke-miterlimit="10" fill="#196B24"/><path d="M4727 901.875C4727 907.95 4722.07 912.874 4716 912.874 4709.92 912.874 4705 907.95 4705 901.875 4705 895.8 4709.92 890.875 4716 890.875 4722.07 890.875 4727 895.8 4727 901.875Z" stroke="#196B24" stroke-width="3.4375" stroke-linejoin="round" stroke-miterlimit="10" fill="#196B24"/><path d="M4781 901.875C4781 907.95 4776.07 912.874 4770 912.874 4763.92 912.874 4759 907.95 4759 901.875 4759 895.8 4763.92 890.875 4770 890.875 4776.07 890.875 4781 895.8 4781 901.875Z" stroke="#196B24" stroke-width="3.4375" stroke-linejoin="round" stroke-miterlimit="10" fill="#196B24"/><path d="M4781 901.875C4781 907.95 4776.07 912.874 4770 912.874 4763.92 912.874 4759 907.95 4759 901.875 4759 895.8 4763.92 890.875 4770 890.875 4776.07 890.875 4781 895.8 4781 901.875Z" stroke="#196B24" stroke-width="3.4375" stroke-linejoin="round" stroke-miterlimit="10" fill="#196B24"/><path d="M4781 901.875C4781 907.95 4776.07 912.874 4770 912.874 4763.92 912.874 4759 907.95 4759 901.875 4759 895.8 4763.92 890.875 4770 890.875 4776.07 890.875 4781 895.8 4781 901.875Z" stroke="#196B24" stroke-width="3.4375" stroke-linejoin="round" stroke-miterlimit="10" fill="#196B24"/><path d="M4781 901.875C4781 907.95 4776.07 912.874 4770 912.874 4763.92 912.874 4759 907.95 4759 901.875 4759 895.8 4763.92 890.875 4770 890.875 4776.07 890.875 4781 895.8 4781 901.875Z" stroke="#196B24" stroke-width="3.4375" stroke-linejoin="round" stroke-miterlimit="10" fill="#196B24"/><path d="M5211 901.875C5211 907.95 5206.07 912.874 5200 912.874 5193.92 912.874 5189 907.95 5189 901.875 5189 895.8 5193.92 890.875 5200 890.875 5206.07 890.875 5211 895.8 5211 901.875Z" stroke="#196B24" stroke-width="3.4375" stroke-linejoin="round" stroke-miterlimit="10" fill="#196B24"/><path d="M5211 901.875C5211 907.95 5206.07 912.874 5200 912.874 5193.92 912.874 5189 907.95 5189 901.875 5189 895.8 5193.92 890.875 5200 890.875 5206.07 890.875 5211 895.8 5211 901.875Z" stroke="#196B24" stroke-width="3.4375" stroke-linejoin="round" stroke-miterlimit="10" fill="#196B24"/><path d="M5211 901.875C5211 907.95 5206.07 912.874 5200 912.874 5193.92 912.874 5189 907.95 5189 901.875 5189 895.8 5193.92 890.875 5200 890.875 5206.07 890.875 5211 895.8 5211 901.875Z" stroke="#196B24" stroke-width="3.4375" stroke-linejoin="round" stroke-miterlimit="10" fill="#196B24"/><path d="M5211 901.875C5211 907.95 5206.07 912.874 5200 912.874 5193.92 912.874 5189 907.95 5189 901.875 5189 895.8 5193.92 890.875 5200 890.875 5206.07 890.875 5211 895.8 5211 901.875Z" stroke="#196B24" stroke-width="3.4375" stroke-linejoin="round" stroke-miterlimit="10" fill="#196B24"/><path d="M5749 901.875C5749 907.95 5744.07 912.874 5738 912.874 5731.92 912.874 5727 907.95 5727 901.875 5727 895.8 5731.92 890.875 5738 890.875 5744.07 890.875 5749 895.8 5749 901.875Z" stroke="#196B24" stroke-width="3.4375" stroke-linejoin="round" stroke-miterlimit="10" fill="#196B24"/><path d="M5749 901.875C5749 907.95 5744.07 912.874 5738 912.874 5731.92 912.874 5727 907.95 5727 901.875 5727 895.8 5731.92 890.875 5738 890.875 5744.07 890.875 5749 895.8 5749 901.875Z" stroke="#196B24" stroke-width="3.4375" stroke-linejoin="round" stroke-miterlimit="10" fill="#196B24"/><path d="M5749 901.875C5749 907.95 5744.07 912.874 5738 912.874 5731.92 912.874 5727 907.95 5727 901.875 5727 895.8 5731.92 890.875 5738 890.875 5744.07 890.875 5749 895.8 5749 901.875Z" stroke="#196B24" stroke-width="3.4375" stroke-linejoin="round" stroke-miterlimit="10" fill="#196B24"/><path d="M5749 901.875C5749 907.95 5744.07 912.874 5738 912.874 5731.92 912.874 5727 907.95 5727 901.875 5727 895.8 5731.92 890.875 5738 890.875 5744.07 890.875 5749 895.8 5749 901.875Z" stroke="#196B24" stroke-width="3.4375" stroke-linejoin="round" stroke-miterlimit="10" fill="#196B24"/></g><g><text fill="#595959" font-family="Aptos Narrow,Aptos Narrow_MSFontService,sans-serif" font-weight="400" font-stretch="semi-condensed" font-size="41" transform="matrix(1 0 0 1 4602.49 913)">0</text></g><g><text fill="#595959" font-family="Aptos Narrow,Aptos Narrow_MSFontService,sans-serif" font-weight="400" font-stretch="semi-condensed" font-size="41" transform="matrix(1 0 0 1 4456.19 837)">20000000</text></g><g><text fill="#595959" font-family="Aptos Narrow,Aptos Narrow_MSFontService,sans-serif" font-weight="400" font-stretch="semi-condensed" font-size="41" transform="matrix(1 0 0 1 4456.19 761)">40000000</text></g><g><text fill="#595959" font-family="Aptos Narrow,Aptos Narrow_MSFontService,sans-serif" font-weight="400" font-stretch="semi-condensed" font-size="41" transform="matrix(1 0 0 1 4456.19 685)">60000000</text></g><g><text fill="#595959" font-family="Aptos Narrow,Aptos Narrow_MSFontService,sans-serif" font-weight="400" font-stretch="semi-condensed" font-size="41" transform="matrix(1 0 0 1 4456.19 609)">80000000</text></g><g><text fill="#595959" font-family="Aptos Narrow,Aptos Narrow_MSFontService,sans-serif" font-weight="400" font-stretch="semi-condensed" font-size="41" transform="matrix(1 0 0 1 4435.29 532)">100000000</text></g><g><text fill="#595959" font-family="Aptos Narrow,Aptos Narrow_MSFontService,sans-serif" font-weight="400" font-stretch="semi-condensed" font-size="41" transform="matrix(1 0 0 1 4435.29 456)">120000000</text></g><g><text fill="#595959" font-family="Aptos Narrow,Aptos Narrow_MSFontService,sans-serif" font-weight="400" font-stretch="semi-condensed" font-size="41" transform="matrix(1 0 0 1 4435.29 380)">140000000</text></g><g><text fill="#595959" font-family="Aptos Narrow,Aptos Narrow_MSFontService,sans-serif" font-weight="400" font-stretch="semi-condensed" font-size="41" transform="matrix(1 0 0 1 4435.29 304)">160000000</text></g><g><text fill="#595959" font-family="Aptos Narrow,Aptos Narrow_MSFontService,sans-serif" font-weight="400" font-stretch="semi-condensed" font-size="41" transform="matrix(1 0 0 1 4651.02 966)">0</text></g><g><text fill="#595959" font-family="Aptos Narrow,Aptos Narrow_MSFontService,sans-serif" font-weight="400" font-stretch="semi-condensed" font-size="41" transform="matrix(1 0 0 1 4834.9 966)">2000</text></g><g><text fill="#595959" font-family="Aptos Narrow,Aptos Narrow_MSFontService,sans-serif" font-weight="400" font-stretch="semi-condensed" font-size="41" transform="matrix(1 0 0 1 5050.13 966)">4000</text></g><g><text fill="#595959" font-family="Aptos Narrow,Aptos Narrow_MSFontService,sans-serif" font-weight="400" font-stretch="semi-condensed" font-size="41" transform="matrix(1 0 0 1 5265.35 966)">6000</text></g><g><text fill="#595959" font-family="Aptos Narrow,Aptos Narrow_MSFontService,sans-serif" font-weight="400" font-stretch="semi-condensed" font-size="41" transform="matrix(1 0 0 1 5480.58 966)">8000</text></g><g><text fill="#595959" font-family="Aptos Narrow,Aptos Narrow_MSFontService,sans-serif" font-weight="400" font-stretch="semi-condensed" font-size="41" transform="matrix(1 0 0 1 5685.36 966)">10000</text></g><g><text fill="#595959" font-family="Aptos Narrow,Aptos Narrow_MSFontService,sans-serif" font-weight="400" font-stretch="semi-condensed" font-size="41" transform="matrix(1 0 0 1 5900.58 966)">12000</text></g><g><text fill="#595959" font-family="Aptos Narrow,Aptos Narrow_MSFontService,sans-serif" font-weight="400" font-stretch="semi-condensed" font-size="64" transform="matrix(1 0 0 1 5109.03 217)">Tri à bulle</text></g><g><path d="M4769.5 1046.5 4857.5 1046.5" stroke="#156082" stroke-width="6.875" stroke-linecap="round" stroke-linejoin="round" stroke-miterlimit="10" fill="none" fill-rule="evenodd"/></g><g><path d="M4824 1046C4824 1052.07 4819.08 1057 4813 1057 4806.92 1057 4802 1052.07 4802 1046 4802 1039.92 4806.92 1035 4813 1035 4819.08 1035 4824 1039.92 4824 1046Z" stroke="#156082" stroke-width="3.4375" stroke-linejoin="round" stroke-miterlimit="10" fill="#156082"/></g><g><text fill="#595959" font-family="Aptos Narrow,Aptos Narrow_MSFontService,sans-serif" font-weight="400" font-stretch="semi-condensed" font-size="41" transform="matrix(1 0 0 1 4866.6 1058)">Comparaisons</text></g><g><path d="M5164.5 1046.5 5252.5 1046.5" stroke="#E97132" stroke-width="6.875" stroke-linecap="round" stroke-linejoin="round" stroke-miterlimit="10" fill="none" fill-rule="evenodd"/></g><g><path d="M5219 1046C5219 1052.07 5214.08 1057 5208 1057 5201.92 1057 5197 1052.07 5197 1046 5197 1039.92 5201.92 1035 5208 1035 5214.08 1035 5219 1039.92 5219 1046Z" stroke="#E97132" stroke-width="3.4375" stroke-linejoin="round" stroke-miterlimit="10" fill="#E97132"/></g><g><text fill="#595959" font-family="Aptos Narrow,Aptos Narrow_MSFontService,sans-serif" font-weight="400" font-stretch="semi-condensed" font-size="41" transform="matrix(1 0 0 1 5261.49 1058)">Affectations</text></g><g><path d="M5516.5 1046.5 5604.5 1046.5" stroke="#196B24" stroke-width="6.875" stroke-linecap="round" stroke-linejoin="round" stroke-miterlimit="10" fill="none" fill-rule="evenodd"/></g><g><path d="M5571 1046C5571 1052.07 5566.08 1057 5560 1057 5553.92 1057 5549 1052.07 5549 1046 5549 1039.92 5553.92 1035 5560 1035 5566.08 1035 5571 1039.92 5571 1046Z" stroke="#196B24" stroke-width="3.4375" stroke-linejoin="round" stroke-miterlimit="10" fill="#196B24"/></g><g><text fill="#595959" font-family="Aptos Narrow,Aptos Narrow_MSFontService,sans-serif" font-weight="400" font-stretch="semi-condensed" font-size="41" transform="matrix(1 0 0 1 5614.04 1058)">Temps</text></g><rect x="4406.5" y="122.5" width="1649" height="990" stroke="#D9D9D9" stroke-width="3.4375" stroke-linejoin="round" stroke-miterlimit="10" fill="none"/></g></svg>