<svg width="1653" height="1191" xmlns="http://www.w3.org/2000/svg" xmlns:xlink="http://www.w3.org/1999/xlink" xml:space="preserve" overflow="hidden"><defs><clipPath id="clip0"><rect x="4429" y="2636" width="1653" height="1191"/></clipPath></defs><g clip-path="url(#clip0)" transform="translate(-4429 -2636)"><rect x="4430" y="2637" width="1650" height="1188" fill="#FFFFFF"/><g><path d="M4665.5 3499.62 5988.5 3499.62M4665.5 3383.61 5988.5 3383.61M4665.5 3268.61 5988.5 3268.61M4665.5 3153.6 5988.5 3153.6M4665.5 3037.6 5988.5 3037.6M4665.5 2922.6 5988.5 2922.6M4665.5 2807.5 5988.5 2807.5" stroke="#D9D9D9" stroke-width="3.4375" stroke-linejoin="round" stroke-miterlimit="10" fill="none"/></g><g><path d="M4885.66 2807.5 4885.66 3614.5M5106.67 2807.5 5106.67 3614.5M5326.67 2807.5 5326.67 3614.5M5546.68 2807.5 5546.68 3614.5M5767.69 2807.5 5767.69 3614.5M5988.5 2807.5 5988.5 3614.5" stroke="#D9D9D9" stroke-width="3.4375" stroke-linejoin="round" stroke-miterlimit="10" fill="none"/></g><g><path d="M0 0 0.000360892 807" stroke="#BFBFBF" stroke-width="3.4375" stroke-linejoin="round" stroke-miterlimit="10" fill="none" fill-rule="evenodd" transform="matrix(1 0 0 -1 4665.5 3614.5)"/></g><g><path d="M4665.5 3614.5 5988.5 3614.5" stroke="#BFBFBF" stroke-width="3.4375" stroke-linejoin="round" stroke-miterlimit="10" fill="none" fill-rule="evenodd"/></g><g><path d="M4687.5 3614.5 4687.5 3614.62 4687.5 3614.62 4687.5 3614.62 4775.66 3614.62 4775.66 3607.62 4775.66 3610.62 4775.66 3614.62 4885.66 3614.62 4885.66 3585.62 4885.66 3599.62 4885.66 3614.62 5767.5 3614.62 5767.5 2893.5 5767.5 3253.61 5767.5 3613.62" stroke="#156082" stroke-width="6.875" stroke-linecap="round" stroke-linejoin="round" stroke-miterlimit="10" fill="none"/></g><g><path d="M4698.75 3614.75C4698.75 3620.82 4693.82 3625.75 4687.75 3625.75 4681.67 3625.75 4676.75 3620.82 4676.75 3614.75 4676.75 3608.67 4681.67 3603.75 4687.75 3603.75 4693.82 3603.75 4698.75 3608.67 4698.75 3614.75Z" stroke="#156082" stroke-width="3.4375" stroke-linejoin="round" stroke-miterlimit="10" fill="#156082"/><path d="M4698.75 3614.75C4698.75 3620.82 4693.82 3625.75 4687.75 3625.75 4681.67 3625.75 4676.75 3620.82 4676.75 3614.75 4676.75 3608.67 4681.67 3603.75 4687.75 3603.75 4693.82 3603.75 4698.75 3608.67 4698.75 3614.75Z" stroke="#156082" stroke-width="3.4375" stroke-linejoin="round" stroke-miterlimit="10" fill="#156082"/><path d="M4698.75 3614.75C4698.75 3620.82 4693.82 3625.75 4687.75 3625.75 4681.67 3625.75 4676.75 3620.82 4676.75 3614.75 4676.75 3608.67 4681.67 3603.75 4687.75 3603.75 4693.82 3603.75 4698.75 3608.67 4698.75 3614.75Z" stroke="#156082" stroke-width="3.4375" stroke-linejoin="round" stroke-miterlimit="10" fill="#156082"/><path d="M4698.75 3614.75C4698.75 3620.82 4693.82 3625.75 4687.75 3625.75 4681.67 3625.75 4676.75 3620.82 4676.75 3614.75 4676.75 3608.67 4681.67 3603.75 4687.75 3603.75 4693.82 3603.75 4698.75 3608.67 4698.75 3614.75Z" stroke="#156082" stroke-width="3.4375" stroke-linejoin="round" stroke-miterlimit="10" fill="#156082"/><path d="M4786.75 3614.75C4786.75 3620.82 4781.82 3625.75 4775.75 3625.75 4769.67 3625.75 4764.75 3620.82 4764.75 3614.75 4764.75 3608.67 4769.67 3603.75 4775.75 3603.75 4781.82 3603.75 4786.75 3608.67 4786.75 3614.75Z" stroke="#156082" stroke-width="3.4375" stroke-linejoin="round" stroke-miterlimit="10" fill="#156082"/><path d="M4786.75 3607.75C4786.75 3613.82 4781.82 3618.75 4775.75 3618.75 4769.67 3618.75 4764.75 3613.82 4764.75 3607.75 4764.75 3601.67 4769.67 3596.75 4775.75 3596.75 4781.82 3596.75 4786.75 3601.67 4786.75 3607.75Z" stroke="#156082" stroke-width="3.4375" stroke-linejoin="round" stroke-miterlimit="10" fill="#156082"/><path d="M4786.75 3610.75C4786.75 3616.82 4781.82 3621.75 4775.75 3621.75 4769.67 3621.75 4764.75 3616.82 4764.75 3610.75 4764.75 3604.67 4769.67 3599.75 4775.75 3599.75 4781.82 3599.75 4786.75 3604.67 4786.75 3610.75Z" stroke="#156082" stroke-width="3.4375" stroke-linejoin="round" stroke-miterlimit="10" fill="#156082"/><path d="M4786.75 3614.75C4786.75 3620.82 4781.82 3625.75 4775.75 3625.75 4769.67 3625.75 4764.75 3620.82 4764.75 3614.75 4764.75 3608.67 4769.67 3603.75 4775.75 3603.75 4781.82 3603.75 4786.75 3608.67 4786.75 3614.75Z" stroke="#156082" stroke-width="3.4375" stroke-linejoin="round" stroke-miterlimit="10" fill="#156082"/><path d="M4896.75 3614.75C4896.75 3620.82 4891.82 3625.75 4885.75 3625.75 4879.67 3625.75 4874.75 3620.82 4874.75 3614.75 4874.75 3608.67 4879.67 3603.75 4885.75 3603.75 4891.82 3603.75 4896.75 3608.67 4896.75 3614.75Z" stroke="#156082" stroke-width="3.4375" stroke-linejoin="round" stroke-miterlimit="10" fill="#156082"/><path d="M4896.75 3585.75C4896.75 3591.82 4891.82 3596.75 4885.75 3596.75 4879.67 3596.75 4874.75 3591.82 4874.75 3585.75 4874.75 3579.67 4879.67 3574.75 4885.75 3574.75 4891.82 3574.75 4896.75 3579.67 4896.75 3585.75Z" stroke="#156082" stroke-width="3.4375" stroke-linejoin="round" stroke-miterlimit="10" fill="#156082"/><path d="M4896.75 3599.75C4896.75 3605.82 4891.82 3610.75 4885.75 3610.75 4879.67 3610.75 4874.75 3605.82 4874.75 3599.75 4874.75 3593.67 4879.67 3588.75 4885.75 3588.75 4891.82 3588.75 4896.75 3593.67 4896.75 3599.75Z" stroke="#156082" stroke-width="3.4375" stroke-linejoin="round" stroke-miterlimit="10" fill="#156082"/><path d="M4896.75 3614.75C4896.75 3620.82 4891.82 3625.75 4885.75 3625.75 4879.67 3625.75 4874.75 3620.82 4874.75 3614.75 4874.75 3608.67 4879.67 3603.75 4885.75 3603.75 4891.82 3603.75 4896.75 3608.67 4896.75 3614.75Z" stroke="#156082" stroke-width="3.4375" stroke-linejoin="round" stroke-miterlimit="10" fill="#156082"/><path d="M5778.75 3614.75C5778.75 3620.82 5773.82 3625.75 5767.75 3625.75 5761.67 3625.75 5756.75 3620.82 5756.75 3614.75 5756.75 3608.67 5761.67 3603.75 5767.75 3603.75 5773.82 3603.75 5778.75 3608.67 5778.75 3614.75Z" stroke="#156082" stroke-width="3.4375" stroke-linejoin="round" stroke-miterlimit="10" fill="#156082"/><path d="M5778.75 2893.75C5778.75 2899.82 5773.82 2904.75 5767.75 2904.75 5761.67 2904.75 5756.75 2899.82 5756.75 2893.75 5756.75 2887.67 5761.67 2882.75 5767.75 2882.75 5773.82 2882.75 5778.75 2887.67 5778.75 2893.75Z" stroke="#156082" stroke-width="3.4375" stroke-linejoin="round" stroke-miterlimit="10" fill="#156082"/><path d="M5778.75 3253.75C5778.75 3259.82 5773.82 3264.75 5767.75 3264.75 5761.67 3264.75 5756.75 3259.82 5756.75 3253.75 5756.75 3247.67 5761.67 3242.75 5767.75 3242.75 5773.82 3242.75 5778.75 3247.67 5778.75 3253.75Z" stroke="#156082" stroke-width="3.4375" stroke-linejoin="round" stroke-miterlimit="10" fill="#156082"/><path d="M5778.75 3614.75C5778.75 3620.82 5773.82 3625.75 5767.75 3625.75 5761.67 3625.75 5756.75 3620.82 5756.75 3614.75 5756.75 3608.67 5761.67 3603.75 5767.75 3603.75 5773.82 3603.75 5778.75 3608.67 5778.75 3614.75Z" stroke="#156082" stroke-width="3.4375" stroke-linejoin="round" stroke-miterlimit="10" fill="#156082"/></g><g><path d="M4687.5 3614.5 4687.5 3614.62 4687.5 3614.62 4687.5 3614.62 4775.66 3614.62 4775.66 3607.62 4775.66 3610.62 4775.66 3614.62 4885.66 3614.62 4885.66 3585.62 4885.66 3599.62 4885.66 3614.62 5767.5 3613.62 5767.5 2893.5 5767.5 3252.61 5767.5 3613.62" stroke="#E97132" stroke-width="6.875" stroke-linecap="round" stroke-linejoin="round" stroke-miterlimit="10" fill="none"/></g><g><path d="M4698.75 3614.75C4698.75 3620.82 4693.82 3625.75 4687.75 3625.75 4681.67 3625.75 4676.75 3620.82 4676.75 3614.75 4676.75 3608.67 4681.67 3603.75 4687.75 3603.75 4693.82 3603.75 4698.75 3608.67 4698.75 3614.75Z" stroke="#E97132" stroke-width="3.4375" stroke-linejoin="round" stroke-miterlimit="10" fill="#E97132"/><path d="M4698.75 3614.75C4698.75 3620.82 4693.82 3625.75 4687.75 3625.75 4681.67 3625.75 4676.75 3620.82 4676.75 3614.75 4676.75 3608.67 4681.67 3603.75 4687.75 3603.75 4693.82 3603.75 4698.75 3608.67 4698.75 3614.75Z" stroke="#E97132" stroke-width="3.4375" stroke-linejoin="round" stroke-miterlimit="10" fill="#E97132"/><path d="M4698.75 3614.75C4698.75 3620.82 4693.82 3625.75 4687.75 3625.75 4681.67 3625.75 4676.75 3620.82 4676.75 3614.75 4676.75 3608.67 4681.67 3603.75 4687.75 3603.75 4693.82 3603.75 4698.75 3608.67 4698.75 3614.75Z" stroke="#E97132" stroke-width="3.4375" stroke-linejoin="round" stroke-miterlimit="10" fill="#E97132"/><path d="M4698.75 3614.75C4698.75 3620.82 4693.82 3625.75 4687.75 3625.75 4681.67 3625.75 4676.75 3620.82 4676.75 3614.75 4676.75 3608.67 4681.67 3603.75 4687.75 3603.75 4693.82 3603.75 4698.75 3608.67 4698.75 3614.75Z" stroke="#E97132" stroke-width="3.4375" stroke-linejoin="round" stroke-miterlimit="10" fill="#E97132"/><path d="M4786.75 3614.75C4786.75 3620.82 4781.82 3625.75 4775.75 3625.75 4769.67 3625.75 4764.75 3620.82 4764.75 3614.75 4764.75 3608.67 4769.67 3603.75 4775.75 3603.75 4781.82 3603.75 4786.75 3608.67 4786.75 3614.75Z" stroke="#E97132" stroke-width="3.4375" stroke-linejoin="round" stroke-miterlimit="10" fill="#E97132"/><path d="M4786.75 3607.75C4786.75 3613.82 4781.82 3618.75 4775.75 3618.75 4769.67 3618.75 4764.75 3613.82 4764.75 3607.75 4764.75 3601.67 4769.67 3596.75 4775.75 3596.75 4781.82 3596.75 4786.75 3601.67 4786.75 3607.75Z" stroke="#E97132" stroke-width="3.4375" stroke-linejoin="round" stroke-miterlimit="10" fill="#E97132"/><path d="M4786.75 3610.75C4786.75 3616.82 4781.82 3621.75 4775.75 3621.75 4769.67 3621.75 4764.75 3616.82 4764.75 3610.75 4764.75 3604.67 4769.67 3599.75 4775.75 3599.75 4781.82 3599.75 4786.75 3604.67 4786.75 3610.75Z" stroke="#E97132" stroke-width="3.4375" stroke-linejoin="round" stroke-miterlimit="10" fill="#E97132"/><path d="M4786.75 3614.75C4786.75 3620.82 4781.82 3625.75 4775.75 3625.75 4769.67 3625.75 4764.75 3620.82 4764.75 3614.75 4764.75 3608.67 4769.67 3603.75 4775.75 3603.75 4781.82 3603.75 4786.75 3608.67 4786.75 3614.75Z" stroke="#E97132" stroke-width="3.4375" stroke-linejoin="round" stroke-miterlimit="10" fill="#E97132"/><path d="M4896.75 3614.75C4896.75 3620.82 4891.82 3625.75 4885.75 3625.75 4879.67 3625.75 4874.75 3620.82 4874.75 3614.75 4874.75 3608.67 4879.67 3603.75 4885.75 3603.75 4891.82 3603.75 4896.75 3608.67 4896.75 3614.75Z" stroke="#E97132" stroke-width="3.4375" stroke-linejoin="round" stroke-miterlimit="10" fill="#E97132"/><path d="M4896.75 3585.75C4896.75 3591.82 4891.82 3596.75 4885.75 3596.75 4879.67 3596.75 4874.75 3591.82 4874.75 3585.75 4874.75 3579.67 4879.67 3574.75 4885.75 3574.75 4891.82 3574.75 4896.75 3579.67 4896.75 3585.75Z" stroke="#E97132" stroke-width="3.4375" stroke-linejoin="round" stroke-miterlimit="10" fill="#E97132"/><path d="M4896.75 3599.75C4896.75 3605.82 4891.82 3610.75 4885.75 3610.75 4879.67 3610.75 4874.75 3605.82 4874.75 3599.75 4874.75 3593.67 4879.67 3588.75 4885.75 3588.75 4891.82 3588.75 4896.75 3593.67 4896.75 3599.75Z" stroke="#E97132" stroke-width="3.4375" stroke-linejoin="round" stroke-miterlimit="10" fill="#E97132"/><path d="M4896.75 3614.75C4896.75 3620.82 4891.82 3625.75 4885.75 3625.75 4879.67 3625.75 4874.75 3620.82 4874.75 3614.75 4874.75 3608.67 4879.67 3603.75 4885.75 3603.75 4891.82 3603.75 4896.75 3608.67 4896.75 3614.75Z" stroke="#E97132" stroke-width="3.4375" stroke-linejoin="round" stroke-miterlimit="10" fill="#E97132"/><path d="M5778.75 3613.75C5778.75 3619.82 5773.82 3624.75 5767.75 3624.75 5761.67 3624.75 5756.75 3619.82 5756.75 3613.75 5756.75 3607.67 5761.67 3602.75 5767.75 3602.75 5773.82 3602.75 5778.75 3607.67 5778.75 3613.75Z" stroke="#E97132" stroke-width="3.4375" stroke-linejoin="round" stroke-miterlimit="10" fill="#E97132"/><path d="M5778.75 2893.75C5778.75 2899.82 5773.82 2904.75 5767.75 2904.75 5761.67 2904.75 5756.75 2899.82 5756.75 2893.75 5756.75 2887.67 5761.67 2882.75 5767.75 2882.75 5773.82 2882.75 5778.75 2887.67 5778.75 2893.75Z" stroke="#E97132" stroke-width="3.4375" stroke-linejoin="round" stroke-miterlimit="10" fill="#E97132"/><path d="M5778.75 3253.75C5778.75 3259.82 5773.82 3264.75 5767.75 3264.75 5761.67 3264.75 5756.75 3259.82 5756.75 3253.75 5756.75 3247.67 5761.67 3242.75 5767.75 3242.75 5773.82 3242.75 5778.75 3247.67 5778.75 3253.75Z" stroke="#E97132" stroke-width="3.4375" stroke-linejoin="round" stroke-miterlimit="10" fill="#E97132"/><path d="M5778.75 3613.75C5778.75 3619.82 5773.82 3624.75 5767.75 3624.75 5761.67 3624.75 5756.75 3619.82 5756.75 3613.75 5756.75 3607.67 5761.67 3602.75 5767.75 3602.75 5773.82 3602.75 5778.75 3607.67 5778.75 3613.75Z" stroke="#E97132" stroke-width="3.4375" stroke-linejoin="round" stroke-miterlimit="10" fill="#E97132"/></g><g><path d="M4687.5 3614.5 4775.66 3614.5 4885.66 3614.5 5767.5 3614.5" stroke="#196B24" stroke-width="6.875" stroke-linecap="round" stroke-linejoin="round" stroke-miterlimit="10" fill="none"/></g><g><path d="M4698.75 3614.75C4698.75 3620.82 4693.82 3625.75 4687.75 3625.75 4681.67 3625.75 4676.75 3620.82 4676.75 3614.75 4676.75 3608.67 4681.67 3603.75 4687.75 3603.75 4693.82 3603.75 4698.75 3608.67 4698.75 3614.75Z" stroke="#196B24" stroke-width="3.4375" stroke-linejoin="round" stroke-miterlimit="10" fill="#196B24"/><path d="M4698.75 3614.75C4698.75 3620.82 4693.82 3625.75 4687.75 3625.75 4681.67 3625.75 4676.75 3620.82 4676.75 3614.75 4676.75 3608.67 4681.67 3603.75 4687.75 3603.75 4693.82 3603.75 4698.75 3608.67 4698.75 3614.75Z" stroke="#196B24" stroke-width="3.4375" stroke-linejoin="round" stroke-miterlimit="10" fill="#196B24"/><path d="M4698.75 3614.75C4698.75 3620.82 4693.82 3625.75 4687.75 3625.75 4681.67 3625.75 4676.75 3620.82 4676.75 3614.75 4676.75 3608.67 4681.67 3603.75 4687.75 3603.75 4693.82 3603.75 4698.75 3608.67 4698.75 3614.75Z" stroke="#196B24" stroke-width="3.4375" stroke-linejoin="round" stroke-miterlimit="10" fill="#196B24"/><path d="M4698.75 3614.75C4698.75 3620.82 4693.82 3625.75 4687.75 3625.75 4681.67 3625.75 4676.75 3620.82 4676.75 3614.75 4676.75 3608.67 4681.67 3603.75 4687.75 3603.75 4693.82 3603.75 4698.75 3608.67 4698.75 3614.75Z" stroke="#196B24" stroke-width="3.4375" stroke-linejoin="round" stroke-miterlimit="10" fill="#196B24"/><path d="M4786.75 3614.75C4786.75 3620.82 4781.82 3625.75 4775.75 3625.75 4769.67 3625.75 4764.75 3620.82 4764.75 3614.75 4764.75 3608.67 4769.67 3603.75 4775.75 3603.75 4781.82 3603.75 4786.75 3608.67 4786.75 3614.75Z" stroke="#196B24" stroke-width="3.4375" stroke-linejoin="round" stroke-miterlimit="10" fill="#196B24"/><path d="M4786.75 3614.75C4786.75 3620.82 4781.82 3625.75 4775.75 3625.75 4769.67 3625.75 4764.75 3620.82 4764.75 3614.75 4764.75 3608.67 4769.67 3603.75 4775.75 3603.75 4781.82 3603.75 4786.75 3608.67 4786.75 3614.75Z" stroke="#196B24" stroke-width="3.4375" stroke-linejoin="round" stroke-miterlimit="10" fill="#196B24"/><path d="M4786.75 3614.75C4786.75 3620.82 4781.82 3625.75 4775.75 3625.75 4769.67 3625.75 4764.75 3620.82 4764.75 3614.75 4764.75 3608.67 4769.67 3603.75 4775.75 3603.75 4781.82 3603.75 4786.75 3608.67 4786.75 3614.75Z" stroke="#196B24" stroke-width="3.4375" stroke-linejoin="round" stroke-miterlimit="10" fill="#196B24"/><path d="M4786.75 3614.75C4786.75 3620.82 4781.82 3625.75 4775.75 3625.75 4769.67 3625.75 4764.75 3620.82 4764.75 3614.75 4764.75 3608.67 4769.67 3603.75 4775.75 3603.75 4781.82 3603.75 4786.75 3608.67 4786.75 3614.75Z" stroke="#196B24" stroke-width="3.4375" stroke-linejoin="round" stroke-miterlimit="10" fill="#196B24"/><path d="M4896.75 3614.75C4896.75 3620.82 4891.82 3625.75 4885.75 3625.75 4879.67 3625.75 4874.75 3620.82 4874.75 3614.75 4874.75 3608.67 4879.67 3603.75 4885.75 3603.75 4891.82 3603.75 4896.75 3608.67 4896.75 3614.75Z" stroke="#196B24" stroke-width="3.4375" stroke-linejoin="round" stroke-miterlimit="10" fill="#196B24"/><path d="M4896.75 3614.75C4896.75 3620.82 4891.82 3625.75 4885.75 3625.75 4879.67 3625.75 4874.75 3620.82 4874.75 3614.75 4874.75 3608.67 4879.67 3603.75 4885.75 3603.75 4891.82 3603.75 4896.75 3608.67 4896.75 3614.75Z" stroke="#196B24" stroke-width="3.4375" stroke-linejoin="round" stroke-miterlimit="10" fill="#196B24"/><path d="M4896.75 3614.75C4896.75 3620.82 4891.82 3625.75 4885.75 3625.75 4879.67 3625.75 4874.75 3620.82 4874.75 3614.75 4874.75 3608.67 4879.67 3603.75 4885.75 3603.75 4891.82 3603.75 4896.75 3608.67 4896.75 3614.75Z" stroke="#196B24" stroke-width="3.4375" stroke-linejoin="round" stroke-miterlimit="10" fill="#196B24"/><path d="M4896.75 3614.75C4896.75 3620.82 4891.82 3625.75 4885.75 3625.75 4879.67 3625.75 4874.75 3620.82 4874.75 3614.75 4874.75 3608.67 4879.67 3603.75 4885.75 3603.75 4891.82 3603.75 4896.75 3608.67 4896.75 3614.75Z" stroke="#196B24" stroke-width="3.4375" stroke-linejoin="round" stroke-miterlimit="10" fill="#196B24"/><path d="M5778.75 3614.75C5778.75 3620.82 5773.82 3625.75 5767.75 3625.75 5761.67 3625.75 5756.75 3620.82 5756.75 3614.75 5756.75 3608.67 5761.67 3603.75 5767.75 3603.75 5773.82 3603.75 5778.75 3608.67 5778.75 3614.75Z" stroke="#196B24" stroke-width="3.4375" stroke-linejoin="round" stroke-miterlimit="10" fill="#196B24"/><path d="M5778.75 3614.75C5778.75 3620.82 5773.82 3625.75 5767.75 3625.75 5761.67 3625.75 5756.75 3620.82 5756.75 3614.75 5756.75 3608.67 5761.67 3603.75 5767.75 3603.75 5773.82 3603.75 5778.75 3608.67 5778.75 3614.75Z" stroke="#196B24" stroke-width="3.4375" stroke-linejoin="round" stroke-miterlimit="10" fill="#196B24"/><path d="M5778.75 3614.75C5778.75 3620.82 5773.82 3625.75 5767.75 3625.75 5761.67 3625.75 5756.75 3620.82 5756.75 3614.75 5756.75 3608.67 5761.67 3603.75 5767.75 3603.75 5773.82 3603.75 5778.75 3608.67 5778.75 3614.75Z" stroke="#196B24" stroke-width="3.4375" stroke-linejoin="round" stroke-miterlimit="10" fill="#196B24"/><path d="M5778.75 3614.75C5778.75 3620.82 5773.82 3625.75 5767.75 3625.75 5761.67 3625.75 5756.75 3620.82 5756.75 3614.75 5756.75 3608.67 5761.67 3603.75 5767.75 3603.75 5773.82 3603.75 5778.75 3608.67 5778.75 3614.75Z" stroke="#196B24" stroke-width="3.4375" stroke-linejoin="round" stroke-miterlimit="10" fill="#196B24"/></g><g><text fill="#595959" font-family="Aptos Narrow,Aptos Narrow_MSFontService,sans-serif" font-weight="400" font-stretch="semi-condensed" font-size="41" transform="matrix(1 0 0 1 4606.34 3626)">0</text></g><g><text fill="#595959" font-family="Aptos Narrow,Aptos Narrow_MSFontService,sans-serif" font-weight="400" font-stretch="semi-condensed" font-size="41" transform="matrix(1 0 0 1 4480.94 3511)">2000000</text></g><g><text fill="#595959" font-family="Aptos Narrow,Aptos Narrow_MSFontService,sans-serif" font-weight="400" font-stretch="semi-condensed" font-size="41" transform="matrix(1 0 0 1 4480.94 3395)">4000000</text></g><g><text fill="#595959" font-family="Aptos Narrow,Aptos Narrow_MSFontService,sans-serif" font-weight="400" font-stretch="semi-condensed" font-size="41" transform="matrix(1 0 0 1 4480.94 3280)">6000000</text></g><g><text fill="#595959" font-family="Aptos Narrow,Aptos Narrow_MSFontService,sans-serif" font-weight="400" font-stretch="semi-condensed" font-size="41" transform="matrix(1 0 0 1 4480.94 3165)">8000000</text></g><g><text fill="#595959" font-family="Aptos Narrow,Aptos Narrow_MSFontService,sans-serif" font-weight="400" font-stretch="semi-condensed" font-size="41" transform="matrix(1 0 0 1 4460.04 3049)">10000000</text></g><g><text fill="#595959" font-family="Aptos Narrow,Aptos Narrow_MSFontService,sans-serif" font-weight="400" font-stretch="semi-condensed" font-size="41" transform="matrix(1 0 0 1 4460.04 2934)">12000000</text></g><g><text fill="#595959" font-family="Aptos Narrow,Aptos Narrow_MSFontService,sans-serif" font-weight="400" font-stretch="semi-condensed" font-size="41" transform="matrix(1 0 0 1 4460.04 2819)">14000000</text></g><g><text fill="#595959" font-family="Aptos Narrow,Aptos Narrow_MSFontService,sans-serif" font-weight="400" font-stretch="semi-condensed" font-size="41" transform="matrix(1 0 0 1 4654.88 3679)">0</text></g><g><text fill="#595959" font-family="Aptos Narrow,Aptos Narrow_MSFontService,sans-serif" font-weight="400" font-stretch="semi-condensed" font-size="41" transform="matrix(1 0 0 1 4843.98 3679)">1000</text></g><g><text fill="#595959" font-family="Aptos Narrow,Aptos Narrow_MSFontService,sans-serif" font-weight="400" font-stretch="semi-condensed" font-size="41" transform="matrix(1 0 0 1 5064.43 3679)">2000</text></g><g><text fill="#595959" font-family="Aptos Narrow,Aptos Narrow_MSFontService,sans-serif" font-weight="400" font-stretch="semi-condensed" font-size="41" transform="matrix(1 0 0 1 5284.88 3679)">3000</text></g><g><text fill="#595959" font-family="Aptos Narrow,Aptos Narrow_MSFontService,sans-serif" font-weight="400" font-stretch="semi-condensed" font-size="41" transform="matrix(1 0 0 1 5505.33 3679)">4000</text></g><g><text fill="#595959" font-family="Aptos Narrow,Aptos Narrow_MSFontService,sans-serif" font-weight="400" font-stretch="semi-condensed" font-size="41" transform="matrix(1 0 0 1 5725.78 3679)">5000</text></g><g><text fill="#595959" font-family="Aptos Narrow,Aptos Narrow_MSFontService,sans-serif" font-weight="400" font-stretch="semi-condensed" font-size="41" transform="matrix(1 0 0 1 5946.23 3679)">6000</text></g><g><text fill="#595959" font-family="Aptos Narrow,Aptos Narrow_MSFontService,sans-serif" font-weight="400" font-stretch="semi-condensed" font-size="64" transform="matrix(1 0 0 1 5059.06 2732)">Tri par insertion</text></g><g><path d="M4877.5 3711.5 4965.5 3711.5" stroke="#156082" stroke-width="6.875" stroke-linecap="round" stroke-linejoin="round" stroke-miterlimit="10" fill="none" fill-rule="evenodd"/></g><g><path d="M4932 3711C4932 3717.07 4927.08 3722 4921 3722 4914.92 3722 4910 3717.07 4910 3711 4910 3704.92 4914.92 3700 4921 3700 4927.08 3700 4932 3704.92 4932 3711Z" stroke="#156082" stroke-width="3.4375" stroke-linejoin="round" stroke-miterlimit="10" fill="#156082"/></g><g><text fill="#595959" font-family="Aptos Narrow,Aptos Narrow_MSFontService,sans-serif" font-weight="400" font-stretch="semi-condensed" font-size="41" transform="matrix(1 0 0 1 4974.54 3723)">Comparaisons</text></g><g><path d="M5263.5 3711.5 5351.5 3711.5" stroke="#E97132" stroke-width="6.875" stroke-linecap="round" stroke-linejoin="round" stroke-miterlimit="10" fill="none" fill-rule="evenodd"/></g><g><path d="M5318 3711C5318 3717.07 5313.08 3722 5307 3722 5300.92 3722 5296 3717.07 5296 3711 5296 3704.92 5300.92 3700 5307 3700 5313.08 3700 5318 3704.92 5318 3711Z" stroke="#E97132" stroke-width="3.4375" stroke-linejoin="round" stroke-miterlimit="10" fill="#E97132"/></g><g><text fill="#595959" font-family="Aptos Narrow,Aptos Narrow_MSFontService,sans-serif" font-weight="400" font-stretch="semi-condensed" font-size="41" transform="matrix(1 0 0 1 5360.35 3723)">Affectations</text></g><g><path d="M4877.5 3758.5 4965.5 3758.5" stroke="#196B24" stroke-width="6.875" stroke-linecap="round" stroke-linejoin="round" stroke-miterlimit="10" fill="none" fill-rule="evenodd"/></g><g><path d="M4932 3758C4932 3764.07 4927.08 3769 4921 3769 4914.92 3769 4910 3764.07 4910 3758 4910 3751.92 4914.92 3747 4921 3747 4927.08 3747 4932 3751.92 4932 3758Z" stroke="#196B24" stroke-width="3.4375" stroke-linejoin="round" stroke-miterlimit="10" fill="#196B24"/></g><g><text fill="#595959" font-family="Aptos Narrow,Aptos Narrow_MSFontService,sans-serif" font-weight="400" font-stretch="semi-condensed" font-size="41" transform="matrix(1 0 0 1 4974.54 3770)">Temps</text></g><rect x="4430.5" y="2637.5" width="1650" height="1188" stroke="#D9D9D9" stroke-width="3.4375" stroke-linejoin="round" stroke-miterlimit="10" fill="none"/></g></svg>