<svg width="1653" height="1191" xmlns="http://www.w3.org/2000/svg" xmlns:xlink="http://www.w3.org/1999/xlink" xml:space="preserve" overflow="hidden"><defs><clipPath id="clip0"><rect x="4432" y="1432" width="1653" height="1191"/></clipPath></defs><g clip-path="url(#clip0)" transform="translate(-4432 -1432)"><rect x="4433" y="1433" width="1650" height="1188" fill="#FFFFFF"/><g><path d="M4668.5 2294.58 5990.5 2294.58M4668.5 2179.57 5990.5 2179.57M4668.5 2063.57 5990.5 2063.57M4668.5 1948.56 5990.5 1948.56M4668.5 1833.56 5990.5 1833.56M4668.5 1718.56 5990.5 1718.56M4668.5 1602.5 5990.5 1602.5" stroke="#D9D9D9" stroke-width="3.4375" stroke-linejoin="round" stroke-miterlimit="10" fill="none"/></g><g><path d="M4888.66 1602.5 4888.66 2409.5M5108.67 1602.5 5108.67 2409.5M5329.67 1602.5 5329.67 2409.5M5549.68 1602.5 5549.68 2409.5M5770.69 1602.5 5770.69 2409.5M5990.5 1602.5 5990.5 2409.5" stroke="#D9D9D9" stroke-width="3.4375" stroke-linejoin="round" stroke-miterlimit="10" fill="none"/></g><g><path d="M0 0 0.000360892 807" stroke="#BFBFBF" stroke-width="3.4375" stroke-linejoin="round" stroke-miterlimit="10" fill="none" fill-rule="evenodd" transform="matrix(1 0 0 -1 4668.5 2409.5)"/></g><g><path d="M4668.5 2409.5 5990.5 2409.5" stroke="#BFBFBF" stroke-width="3.4375" stroke-linejoin="round" stroke-miterlimit="10" fill="none" fill-rule="evenodd"/></g><g><path d="M4690.5 2409.5 4778.66 2402.58 4888.66 2381.58 5770.5 1689.5" stroke="#156082" stroke-width="6.875" stroke-linecap="round" stroke-linejoin="round" stroke-miterlimit="10" fill="none"/></g><g><path d="M4701.5 2409.25C4701.5 2415.32 4696.57 2420.25 4690.5 2420.25 4684.42 2420.25 4679.5 2415.32 4679.5 2409.25 4679.5 2403.17 4684.42 2398.25 4690.5 2398.25 4696.57 2398.25 4701.5 2403.17 4701.5 2409.25Z" stroke="#156082" stroke-width="3.4375" stroke-linejoin="round" stroke-miterlimit="10" fill="#156082"/><path d="M4701.5 2409.25C4701.5 2415.32 4696.57 2420.25 4690.5 2420.25 4684.42 2420.25 4679.5 2415.32 4679.5 2409.25 4679.5 2403.17 4684.42 2398.25 4690.5 2398.25 4696.57 2398.25 4701.5 2403.17 4701.5 2409.25Z" stroke="#156082" stroke-width="3.4375" stroke-linejoin="round" stroke-miterlimit="10" fill="#156082"/><path d="M4701.5 2409.25C4701.5 2415.32 4696.57 2420.25 4690.5 2420.25 4684.42 2420.25 4679.5 2415.32 4679.5 2409.25 4679.5 2403.17 4684.42 2398.25 4690.5 2398.25 4696.57 2398.25 4701.5 2403.17 4701.5 2409.25Z" stroke="#156082" stroke-width="3.4375" stroke-linejoin="round" stroke-miterlimit="10" fill="#156082"/><path d="M4701.5 2409.25C4701.5 2415.32 4696.57 2420.25 4690.5 2420.25 4684.42 2420.25 4679.5 2415.32 4679.5 2409.25 4679.5 2403.17 4684.42 2398.25 4690.5 2398.25 4696.57 2398.25 4701.5 2403.17 4701.5 2409.25Z" stroke="#156082" stroke-width="3.4375" stroke-linejoin="round" stroke-miterlimit="10" fill="#156082"/><path d="M4789.5 2402.25C4789.5 2408.32 4784.57 2413.25 4778.5 2413.25 4772.42 2413.25 4767.5 2408.32 4767.5 2402.25 4767.5 2396.17 4772.42 2391.25 4778.5 2391.25 4784.57 2391.25 4789.5 2396.17 4789.5 2402.25Z" stroke="#156082" stroke-width="3.4375" stroke-linejoin="round" stroke-miterlimit="10" fill="#156082"/><path d="M4789.5 2402.25C4789.5 2408.32 4784.57 2413.25 4778.5 2413.25 4772.42 2413.25 4767.5 2408.32 4767.5 2402.25 4767.5 2396.17 4772.42 2391.25 4778.5 2391.25 4784.57 2391.25 4789.5 2396.17 4789.5 2402.25Z" stroke="#156082" stroke-width="3.4375" stroke-linejoin="round" stroke-miterlimit="10" fill="#156082"/><path d="M4789.5 2402.25C4789.5 2408.32 4784.57 2413.25 4778.5 2413.25 4772.42 2413.25 4767.5 2408.32 4767.5 2402.25 4767.5 2396.17 4772.42 2391.25 4778.5 2391.25 4784.57 2391.25 4789.5 2396.17 4789.5 2402.25Z" stroke="#156082" stroke-width="3.4375" stroke-linejoin="round" stroke-miterlimit="10" fill="#156082"/><path d="M4789.5 2402.25C4789.5 2408.32 4784.57 2413.25 4778.5 2413.25 4772.42 2413.25 4767.5 2408.32 4767.5 2402.25 4767.5 2396.17 4772.42 2391.25 4778.5 2391.25 4784.57 2391.25 4789.5 2396.17 4789.5 2402.25Z" stroke="#156082" stroke-width="3.4375" stroke-linejoin="round" stroke-miterlimit="10" fill="#156082"/><path d="M4899.5 2381.25C4899.5 2387.32 4894.57 2392.25 4888.5 2392.25 4882.42 2392.25 4877.5 2387.32 4877.5 2381.25 4877.5 2375.17 4882.42 2370.25 4888.5 2370.25 4894.57 2370.25 4899.5 2375.17 4899.5 2381.25Z" stroke="#156082" stroke-width="3.4375" stroke-linejoin="round" stroke-miterlimit="10" fill="#156082"/><path d="M4899.5 2381.25C4899.5 2387.32 4894.57 2392.25 4888.5 2392.25 4882.42 2392.25 4877.5 2387.32 4877.5 2381.25 4877.5 2375.17 4882.42 2370.25 4888.5 2370.25 4894.57 2370.25 4899.5 2375.17 4899.5 2381.25Z" stroke="#156082" stroke-width="3.4375" stroke-linejoin="round" stroke-miterlimit="10" fill="#156082"/><path d="M4899.5 2381.25C4899.5 2387.32 4894.57 2392.25 4888.5 2392.25 4882.42 2392.25 4877.5 2387.32 4877.5 2381.25 4877.5 2375.17 4882.42 2370.25 4888.5 2370.25 4894.57 2370.25 4899.5 2375.17 4899.5 2381.25Z" stroke="#156082" stroke-width="3.4375" stroke-linejoin="round" stroke-miterlimit="10" fill="#156082"/><path d="M4899.5 2381.25C4899.5 2387.32 4894.57 2392.25 4888.5 2392.25 4882.42 2392.25 4877.5 2387.32 4877.5 2381.25 4877.5 2375.17 4882.42 2370.25 4888.5 2370.25 4894.57 2370.25 4899.5 2375.17 4899.5 2381.25Z" stroke="#156082" stroke-width="3.4375" stroke-linejoin="round" stroke-miterlimit="10" fill="#156082"/><path d="M5781.5 1689.25C5781.5 1695.32 5776.57 1700.25 5770.5 1700.25 5764.42 1700.25 5759.5 1695.32 5759.5 1689.25 5759.5 1683.17 5764.42 1678.25 5770.5 1678.25 5776.57 1678.25 5781.5 1683.17 5781.5 1689.25Z" stroke="#156082" stroke-width="3.4375" stroke-linejoin="round" stroke-miterlimit="10" fill="#156082"/><path d="M5781.5 1689.25C5781.5 1695.32 5776.57 1700.25 5770.5 1700.25 5764.42 1700.25 5759.5 1695.32 5759.5 1689.25 5759.5 1683.17 5764.42 1678.25 5770.5 1678.25 5776.57 1678.25 5781.5 1683.17 5781.5 1689.25Z" stroke="#156082" stroke-width="3.4375" stroke-linejoin="round" stroke-miterlimit="10" fill="#156082"/><path d="M5781.5 1689.25C5781.5 1695.32 5776.57 1700.25 5770.5 1700.25 5764.42 1700.25 5759.5 1695.32 5759.5 1689.25 5759.5 1683.17 5764.42 1678.25 5770.5 1678.25 5776.57 1678.25 5781.5 1683.17 5781.5 1689.25Z" stroke="#156082" stroke-width="3.4375" stroke-linejoin="round" stroke-miterlimit="10" fill="#156082"/><path d="M5781.5 1689.25C5781.5 1695.32 5776.57 1700.25 5770.5 1700.25 5764.42 1700.25 5759.5 1695.32 5759.5 1689.25 5759.5 1683.17 5764.42 1678.25 5770.5 1678.25 5776.57 1678.25 5781.5 1683.17 5781.5 1689.25Z" stroke="#156082" stroke-width="3.4375" stroke-linejoin="round" stroke-miterlimit="10" fill="#156082"/></g><g><path d="M4690.5 2410.5 4778.66 2409.58 4888.66 2409.58 5770.5 2409.5" stroke="#E97132" stroke-width="6.875" stroke-linecap="round" stroke-linejoin="round" stroke-miterlimit="10" fill="none"/></g><g><path d="M4701.5 2409.25C4701.5 2415.32 4696.57 2420.25 4690.5 2420.25 4684.42 2420.25 4679.5 2415.32 4679.5 2409.25 4679.5 2403.17 4684.42 2398.25 4690.5 2398.25 4696.57 2398.25 4701.5 2403.17 4701.5 2409.25Z" stroke="#E97132" stroke-width="3.4375" stroke-linejoin="round" stroke-miterlimit="10" fill="#E97132"/><path d="M4701.5 2409.25C4701.5 2415.32 4696.57 2420.25 4690.5 2420.25 4684.42 2420.25 4679.5 2415.32 4679.5 2409.25 4679.5 2403.17 4684.42 2398.25 4690.5 2398.25 4696.57 2398.25 4701.5 2403.17 4701.5 2409.25Z" stroke="#E97132" stroke-width="3.4375" stroke-linejoin="round" stroke-miterlimit="10" fill="#E97132"/><path d="M4701.5 2409.25C4701.5 2415.32 4696.57 2420.25 4690.5 2420.25 4684.42 2420.25 4679.5 2415.32 4679.5 2409.25 4679.5 2403.17 4684.42 2398.25 4690.5 2398.25 4696.57 2398.25 4701.5 2403.17 4701.5 2409.25Z" stroke="#E97132" stroke-width="3.4375" stroke-linejoin="round" stroke-miterlimit="10" fill="#E97132"/><path d="M4701.5 2409.25C4701.5 2415.32 4696.57 2420.25 4690.5 2420.25 4684.42 2420.25 4679.5 2415.32 4679.5 2409.25 4679.5 2403.17 4684.42 2398.25 4690.5 2398.25 4696.57 2398.25 4701.5 2403.17 4701.5 2409.25Z" stroke="#E97132" stroke-width="3.4375" stroke-linejoin="round" stroke-miterlimit="10" fill="#E97132"/><path d="M4789.5 2409.25C4789.5 2415.32 4784.57 2420.25 4778.5 2420.25 4772.42 2420.25 4767.5 2415.32 4767.5 2409.25 4767.5 2403.17 4772.42 2398.25 4778.5 2398.25 4784.57 2398.25 4789.5 2403.17 4789.5 2409.25Z" stroke="#E97132" stroke-width="3.4375" stroke-linejoin="round" stroke-miterlimit="10" fill="#E97132"/><path d="M4789.5 2409.25C4789.5 2415.32 4784.57 2420.25 4778.5 2420.25 4772.42 2420.25 4767.5 2415.32 4767.5 2409.25 4767.5 2403.17 4772.42 2398.25 4778.5 2398.25 4784.57 2398.25 4789.5 2403.17 4789.5 2409.25Z" stroke="#E97132" stroke-width="3.4375" stroke-linejoin="round" stroke-miterlimit="10" fill="#E97132"/><path d="M4789.5 2409.25C4789.5 2415.32 4784.57 2420.25 4778.5 2420.25 4772.42 2420.25 4767.5 2415.32 4767.5 2409.25 4767.5 2403.17 4772.42 2398.25 4778.5 2398.25 4784.57 2398.25 4789.5 2403.17 4789.5 2409.25Z" stroke="#E97132" stroke-width="3.4375" stroke-linejoin="round" stroke-miterlimit="10" fill="#E97132"/><path d="M4789.5 2409.25C4789.5 2415.32 4784.57 2420.25 4778.5 2420.25 4772.42 2420.25 4767.5 2415.32 4767.5 2409.25 4767.5 2403.17 4772.42 2398.25 4778.5 2398.25 4784.57 2398.25 4789.5 2403.17 4789.5 2409.25Z" stroke="#E97132" stroke-width="3.4375" stroke-linejoin="round" stroke-miterlimit="10" fill="#E97132"/><path d="M4899.5 2409.25C4899.5 2415.32 4894.57 2420.25 4888.5 2420.25 4882.42 2420.25 4877.5 2415.32 4877.5 2409.25 4877.5 2403.17 4882.42 2398.25 4888.5 2398.25 4894.57 2398.25 4899.5 2403.17 4899.5 2409.25Z" stroke="#E97132" stroke-width="3.4375" stroke-linejoin="round" stroke-miterlimit="10" fill="#E97132"/><path d="M4899.5 2409.25C4899.5 2415.32 4894.57 2420.25 4888.5 2420.25 4882.42 2420.25 4877.5 2415.32 4877.5 2409.25 4877.5 2403.17 4882.42 2398.25 4888.5 2398.25 4894.57 2398.25 4899.5 2403.17 4899.5 2409.25Z" stroke="#E97132" stroke-width="3.4375" stroke-linejoin="round" stroke-miterlimit="10" fill="#E97132"/><path d="M4899.5 2409.25C4899.5 2415.32 4894.57 2420.25 4888.5 2420.25 4882.42 2420.25 4877.5 2415.32 4877.5 2409.25 4877.5 2403.17 4882.42 2398.25 4888.5 2398.25 4894.57 2398.25 4899.5 2403.17 4899.5 2409.25Z" stroke="#E97132" stroke-width="3.4375" stroke-linejoin="round" stroke-miterlimit="10" fill="#E97132"/><path d="M4899.5 2409.25C4899.5 2415.32 4894.57 2420.25 4888.5 2420.25 4882.42 2420.25 4877.5 2415.32 4877.5 2409.25 4877.5 2403.17 4882.42 2398.25 4888.5 2398.25 4894.57 2398.25 4899.5 2403.17 4899.5 2409.25Z" stroke="#E97132" stroke-width="3.4375" stroke-linejoin="round" stroke-miterlimit="10" fill="#E97132"/><path d="M5781.5 2409.25C5781.5 2415.32 5776.57 2420.25 5770.5 2420.25 5764.42 2420.25 5759.5 2415.32 5759.5 2409.25 5759.5 2403.17 5764.42 2398.25 5770.5 2398.25 5776.57 2398.25 5781.5 2403.17 5781.5 2409.25Z" stroke="#E97132" stroke-width="3.4375" stroke-linejoin="round" stroke-miterlimit="10" fill="#E97132"/><path d="M5781.5 2409.25C5781.5 2415.32 5776.57 2420.25 5770.5 2420.25 5764.42 2420.25 5759.5 2415.32 5759.5 2409.25 5759.5 2403.17 5764.42 2398.25 5770.5 2398.25 5776.57 2398.25 5781.5 2403.17 5781.5 2409.25Z" stroke="#E97132" stroke-width="3.4375" stroke-linejoin="round" stroke-miterlimit="10" fill="#E97132"/><path d="M5781.5 2409.25C5781.5 2415.32 5776.57 2420.25 5770.5 2420.25 5764.42 2420.25 5759.5 2415.32 5759.5 2409.25 5759.5 2403.17 5764.42 2398.25 5770.5 2398.25 5776.57 2398.25 5781.5 2403.17 5781.5 2409.25Z" stroke="#E97132" stroke-width="3.4375" stroke-linejoin="round" stroke-miterlimit="10" fill="#E97132"/><path d="M5781.5 2409.25C5781.5 2415.32 5776.57 2420.25 5770.5 2420.25 5764.42 2420.25 5759.5 2415.32 5759.5 2409.25 5759.5 2403.17 5764.42 2398.25 5770.5 2398.25 5776.57 2398.25 5781.5 2403.17 5781.5 2409.25Z" stroke="#E97132" stroke-width="3.4375" stroke-linejoin="round" stroke-miterlimit="10" fill="#E97132"/></g><g><path d="M4690.5 2409.5 4778.66 2409.5 4888.66 2409.5 5770.5 2409.5" stroke="#196B24" stroke-width="6.875" stroke-linecap="round" stroke-linejoin="round" stroke-miterlimit="10" fill="none"/></g><g><path d="M4701.5 2409.25C4701.5 2415.32 4696.57 2420.25 4690.5 2420.25 4684.42 2420.25 4679.5 2415.32 4679.5 2409.25 4679.5 2403.17 4684.42 2398.25 4690.5 2398.25 4696.57 2398.25 4701.5 2403.17 4701.5 2409.25Z" stroke="#196B24" stroke-width="3.4375" stroke-linejoin="round" stroke-miterlimit="10" fill="#196B24"/><path d="M4701.5 2409.25C4701.5 2415.32 4696.57 2420.25 4690.5 2420.25 4684.42 2420.25 4679.5 2415.32 4679.5 2409.25 4679.5 2403.17 4684.42 2398.25 4690.5 2398.25 4696.57 2398.25 4701.5 2403.17 4701.5 2409.25Z" stroke="#196B24" stroke-width="3.4375" stroke-linejoin="round" stroke-miterlimit="10" fill="#196B24"/><path d="M4701.5 2409.25C4701.5 2415.32 4696.57 2420.25 4690.5 2420.25 4684.42 2420.25 4679.5 2415.32 4679.5 2409.25 4679.5 2403.17 4684.42 2398.25 4690.5 2398.25 4696.57 2398.25 4701.5 2403.17 4701.5 2409.25Z" stroke="#196B24" stroke-width="3.4375" stroke-linejoin="round" stroke-miterlimit="10" fill="#196B24"/><path d="M4701.5 2409.25C4701.5 2415.32 4696.57 2420.25 4690.5 2420.25 4684.42 2420.25 4679.5 2415.32 4679.5 2409.25 4679.5 2403.17 4684.42 2398.25 4690.5 2398.25 4696.57 2398.25 4701.5 2403.17 4701.5 2409.25Z" stroke="#196B24" stroke-width="3.4375" stroke-linejoin="round" stroke-miterlimit="10" fill="#196B24"/><path d="M4789.5 2409.25C4789.5 2415.32 4784.57 2420.25 4778.5 2420.25 4772.42 2420.25 4767.5 2415.32 4767.5 2409.25 4767.5 2403.17 4772.42 2398.25 4778.5 2398.25 4784.57 2398.25 4789.5 2403.17 4789.5 2409.25Z" stroke="#196B24" stroke-width="3.4375" stroke-linejoin="round" stroke-miterlimit="10" fill="#196B24"/><path d="M4789.5 2409.25C4789.5 2415.32 4784.57 2420.25 4778.5 2420.25 4772.42 2420.25 4767.5 2415.32 4767.5 2409.25 4767.5 2403.17 4772.42 2398.25 4778.5 2398.25 4784.57 2398.25 4789.5 2403.17 4789.5 2409.25Z" stroke="#196B24" stroke-width="3.4375" stroke-linejoin="round" stroke-miterlimit="10" fill="#196B24"/><path d="M4789.5 2409.25C4789.5 2415.32 4784.57 2420.25 4778.5 2420.25 4772.42 2420.25 4767.5 2415.32 4767.5 2409.25 4767.5 2403.17 4772.42 2398.25 4778.5 2398.25 4784.57 2398.25 4789.5 2403.17 4789.5 2409.25Z" stroke="#196B24" stroke-width="3.4375" stroke-linejoin="round" stroke-miterlimit="10" fill="#196B24"/><path d="M4789.5 2409.25C4789.5 2415.32 4784.57 2420.25 4778.5 2420.25 4772.42 2420.25 4767.5 2415.32 4767.5 2409.25 4767.5 2403.17 4772.42 2398.25 4778.5 2398.25 4784.57 2398.25 4789.5 2403.17 4789.5 2409.25Z" stroke="#196B24" stroke-width="3.4375" stroke-linejoin="round" stroke-miterlimit="10" fill="#196B24"/><path d="M4899.5 2409.25C4899.5 2415.32 4894.57 2420.25 4888.5 2420.25 4882.42 2420.25 4877.5 2415.32 4877.5 2409.25 4877.5 2403.17 4882.42 2398.25 4888.5 2398.25 4894.57 2398.25 4899.5 2403.17 4899.5 2409.25Z" stroke="#196B24" stroke-width="3.4375" stroke-linejoin="round" stroke-miterlimit="10" fill="#196B24"/><path d="M4899.5 2409.25C4899.5 2415.32 4894.57 2420.25 4888.5 2420.25 4882.42 2420.25 4877.5 2415.32 4877.5 2409.25 4877.5 2403.17 4882.42 2398.25 4888.5 2398.25 4894.57 2398.25 4899.5 2403.17 4899.5 2409.25Z" stroke="#196B24" stroke-width="3.4375" stroke-linejoin="round" stroke-miterlimit="10" fill="#196B24"/><path d="M4899.5 2409.25C4899.5 2415.32 4894.57 2420.25 4888.5 2420.25 4882.42 2420.25 4877.5 2415.32 4877.5 2409.25 4877.5 2403.17 4882.42 2398.25 4888.5 2398.25 4894.57 2398.25 4899.5 2403.17 4899.5 2409.25Z" stroke="#196B24" stroke-width="3.4375" stroke-linejoin="round" stroke-miterlimit="10" fill="#196B24"/><path d="M4899.5 2409.25C4899.5 2415.32 4894.57 2420.25 4888.5 2420.25 4882.42 2420.25 4877.5 2415.32 4877.5 2409.25 4877.5 2403.17 4882.42 2398.25 4888.5 2398.25 4894.57 2398.25 4899.5 2403.17 4899.5 2409.25Z" stroke="#196B24" stroke-width="3.4375" stroke-linejoin="round" stroke-miterlimit="10" fill="#196B24"/><path d="M5781.5 2409.25C5781.5 2415.32 5776.57 2420.25 5770.5 2420.25 5764.42 2420.25 5759.5 2415.32 5759.5 2409.25 5759.5 2403.17 5764.42 2398.25 5770.5 2398.25 5776.57 2398.25 5781.5 2403.17 5781.5 2409.25Z" stroke="#196B24" stroke-width="3.4375" stroke-linejoin="round" stroke-miterlimit="10" fill="#196B24"/><path d="M5781.5 2409.25C5781.5 2415.32 5776.57 2420.25 5770.5 2420.25 5764.42 2420.25 5759.5 2415.32 5759.5 2409.25 5759.5 2403.17 5764.42 2398.25 5770.5 2398.25 5776.57 2398.25 5781.5 2403.17 5781.5 2409.25Z" stroke="#196B24" stroke-width="3.4375" stroke-linejoin="round" stroke-miterlimit="10" fill="#196B24"/><path d="M5781.5 2409.25C5781.5 2415.32 5776.57 2420.25 5770.5 2420.25 5764.42 2420.25 5759.5 2415.32 5759.5 2409.25 5759.5 2403.17 5764.42 2398.25 5770.5 2398.25 5776.57 2398.25 5781.5 2403.17 5781.5 2409.25Z" stroke="#196B24" stroke-width="3.4375" stroke-linejoin="round" stroke-miterlimit="10" fill="#196B24"/><path d="M5781.5 2409.25C5781.5 2415.32 5776.57 2420.25 5770.5 2420.25 5764.42 2420.25 5759.5 2415.32 5759.5 2409.25 5759.5 2403.17 5764.42 2398.25 5770.5 2398.25 5776.57 2398.25 5781.5 2403.17 5781.5 2409.25Z" stroke="#196B24" stroke-width="3.4375" stroke-linejoin="round" stroke-miterlimit="10" fill="#196B24"/></g><g><text fill="#595959" font-family="Aptos Narrow,Aptos Narrow_MSFontService,sans-serif" font-weight="400" font-stretch="semi-condensed" font-size="41" transform="matrix(1 0 0 1 4609.09 2421)">0</text></g><g><text fill="#595959" font-family="Aptos Narrow,Aptos Narrow_MSFontService,sans-serif" font-weight="400" font-stretch="semi-condensed" font-size="41" transform="matrix(1 0 0 1 4483.69 2306)">2000000</text></g><g><text fill="#595959" font-family="Aptos Narrow,Aptos Narrow_MSFontService,sans-serif" font-weight="400" font-stretch="semi-condensed" font-size="41" transform="matrix(1 0 0 1 4483.69 2191)">4000000</text></g><g><text fill="#595959" font-family="Aptos Narrow,Aptos Narrow_MSFontService,sans-serif" font-weight="400" font-stretch="semi-condensed" font-size="41" transform="matrix(1 0 0 1 4483.69 2076)">6000000</text></g><g><text fill="#595959" font-family="Aptos Narrow,Aptos Narrow_MSFontService,sans-serif" font-weight="400" font-stretch="semi-condensed" font-size="41" transform="matrix(1 0 0 1 4483.69 1960)">8000000</text></g><g><text fill="#595959" font-family="Aptos Narrow,Aptos Narrow_MSFontService,sans-serif" font-weight="400" font-stretch="semi-condensed" font-size="41" transform="matrix(1 0 0 1 4462.79 1845)">10000000</text></g><g><text fill="#595959" font-family="Aptos Narrow,Aptos Narrow_MSFontService,sans-serif" font-weight="400" font-stretch="semi-condensed" font-size="41" transform="matrix(1 0 0 1 4462.79 1730)">12000000</text></g><g><text fill="#595959" font-family="Aptos Narrow,Aptos Narrow_MSFontService,sans-serif" font-weight="400" font-stretch="semi-condensed" font-size="41" transform="matrix(1 0 0 1 4462.79 1614)">14000000</text></g><g><text fill="#595959" font-family="Aptos Narrow,Aptos Narrow_MSFontService,sans-serif" font-weight="400" font-stretch="semi-condensed" font-size="41" transform="matrix(1 0 0 1 4657.62 2475)">0</text></g><g><text fill="#595959" font-family="Aptos Narrow,Aptos Narrow_MSFontService,sans-serif" font-weight="400" font-stretch="semi-condensed" font-size="41" transform="matrix(1 0 0 1 4846.73 2475)">1000</text></g><g><text fill="#595959" font-family="Aptos Narrow,Aptos Narrow_MSFontService,sans-serif" font-weight="400" font-stretch="semi-condensed" font-size="41" transform="matrix(1 0 0 1 5067.18 2475)">2000</text></g><g><text fill="#595959" font-family="Aptos Narrow,Aptos Narrow_MSFontService,sans-serif" font-weight="400" font-stretch="semi-condensed" font-size="41" transform="matrix(1 0 0 1 5287.63 2475)">3000</text></g><g><text fill="#595959" font-family="Aptos Narrow,Aptos Narrow_MSFontService,sans-serif" font-weight="400" font-stretch="semi-condensed" font-size="41" transform="matrix(1 0 0 1 5508.08 2475)">4000</text></g><g><text fill="#595959" font-family="Aptos Narrow,Aptos Narrow_MSFontService,sans-serif" font-weight="400" font-stretch="semi-condensed" font-size="41" transform="matrix(1 0 0 1 5728.53 2475)">5000</text></g><g><text fill="#595959" font-family="Aptos Narrow,Aptos Narrow_MSFontService,sans-serif" font-weight="400" font-stretch="semi-condensed" font-size="41" transform="matrix(1 0 0 1 5948.98 2475)">6000</text></g><g><text fill="#595959" font-family="Aptos Narrow,Aptos Narrow_MSFontService,sans-serif" font-weight="400" font-stretch="semi-condensed" font-size="64" transform="matrix(1 0 0 1 5056.44 1527)">Tri par séléction</text></g><g><path d="M4880.5 2507.5 4968.5 2507.5" stroke="#156082" stroke-width="6.875" stroke-linecap="round" stroke-linejoin="round" stroke-miterlimit="10" fill="none" fill-rule="evenodd"/></g><g><path d="M4935 2507C4935 2513.07 4930.08 2518 4924 2518 4917.92 2518 4913 2513.07 4913 2507 4913 2500.92 4917.92 2496 4924 2496 4930.08 2496 4935 2500.92 4935 2507Z" stroke="#156082" stroke-width="3.4375" stroke-linejoin="round" stroke-miterlimit="10" fill="#156082"/></g><g><text fill="#595959" font-family="Aptos Narrow,Aptos Narrow_MSFontService,sans-serif" font-weight="400" font-stretch="semi-condensed" font-size="41" transform="matrix(1 0 0 1 4977.29 2519)">Comparaisons</text></g><g><path d="M5265.5 2507.5 5353.5 2507.5" stroke="#E97132" stroke-width="6.875" stroke-linecap="round" stroke-linejoin="round" stroke-miterlimit="10" fill="none" fill-rule="evenodd"/></g><g><path d="M5320 2507C5320 2513.07 5315.08 2518 5309 2518 5302.92 2518 5298 2513.07 5298 2507 5298 2500.92 5302.92 2496 5309 2496 5315.08 2496 5320 2500.92 5320 2507Z" stroke="#E97132" stroke-width="3.4375" stroke-linejoin="round" stroke-miterlimit="10" fill="#E97132"/></g><g><text fill="#595959" font-family="Aptos Narrow,Aptos Narrow_MSFontService,sans-serif" font-weight="400" font-stretch="semi-condensed" font-size="41" transform="matrix(1 0 0 1 5363.1 2519)">Affectations</text></g><g><path d="M4880.5 2553.5 4968.5 2553.5" stroke="#196B24" stroke-width="6.875" stroke-linecap="round" stroke-linejoin="round" stroke-miterlimit="10" fill="none" fill-rule="evenodd"/></g><g><path d="M4935 2553C4935 2559.07 4930.08 2564 4924 2564 4917.92 2564 4913 2559.07 4913 2553 4913 2546.92 4917.92 2542 4924 2542 4930.08 2542 4935 2546.92 4935 2553Z" stroke="#196B24" stroke-width="3.4375" stroke-linejoin="round" stroke-miterlimit="10" fill="#196B24"/></g><g><text fill="#595959" font-family="Aptos Narrow,Aptos Narrow_MSFontService,sans-serif" font-weight="400" font-stretch="semi-condensed" font-size="41" transform="matrix(1 0 0 1 4977.29 2565)">Temps</text></g><rect x="4433.5" y="1433.5" width="1650" height="1188" stroke="#D9D9D9" stroke-width="3.4375" stroke-linejoin="round" stroke-miterlimit="10" fill="none"/></g></svg>